<?xml version="1.0" encoding="UTF-8" standalone="no"?><!DOCTYPE svg PUBLIC "-//W3C//DTD SVG 1.1//EN" "http://www.w3.org/Graphics/SVG/1.1/DTD/svg11.dtd"><svg width="100%" height="100%" viewBox="0 0 681 681" version="1.1" xmlns="http://www.w3.org/2000/svg" xmlns:xlink="http://www.w3.org/1999/xlink" xml:space="preserve" xmlns:serif="http://www.serif.com/" style="fill-rule:evenodd;clip-rule:evenodd;stroke-linecap:round;stroke-linejoin:round;stroke-miterlimit:1.5;"><g transform="matrix(0.48,0,0,0.48,0,-2057.07)"><g id="_11" serif:id="11" transform="matrix(0.142687,0,0,0.20202,0,4285.57)"><rect x="0" y="0" width="9933.07" height="7015.75" style="fill:none;"/><g transform="matrix(1.05135,0,0,1.05135,-42.0363,-9.87547)"><g transform="matrix(6.05661,0,0,4.98454,-14855.7,-21611.7)"><g transform="matrix(0.932648,0.309633,-0.270873,0.600932,2641.54,4854.33)"><g transform="matrix(-0.347923,0.243517,0.182828,0.463416,837.526,-1183.62)"><path d="M1248.67,3086.39C1248.67,3086.39 1171.34,3116.01 1132.67,3115.19C1094,3114.37 1018.75,3287.56 1027.8,3308.13C1102.49,3210.16 1159.6,3160.73 1159.6,3160.73C1159.6,3160.73 1240.62,3172.42 1271.89,3136.22C1303.15,3100.02 1277.47,3078.17 1248.67,3086.39Z" style="fill:rgb(203,68,29);"/><clipPath id="_clip1"><path d="M1248.67,3086.39C1248.67,3086.39 1171.34,3116.01 1132.67,3115.19C1094,3114.37 1018.75,3287.56 1027.8,3308.13C1102.49,3210.16 1159.6,3160.73 1159.6,3160.73C1159.6,3160.73 1240.62,3172.42 1271.89,3136.22C1303.15,3100.02 1277.47,3078.17 1248.67,3086.39Z"/></clipPath><g clip-path="url(#_clip1)"><g transform="matrix(-1.12778,0.0453497,0.0597743,1.4865,2692.11,2023.4)"><path d="M1417,671.423C1417,671.423 1420.04,699.73 1405.55,720.961C1432.17,706.807 1437.22,696.023 1447.33,674.456C1457.44,652.888 1417,671.423 1417,671.423Z" style="fill:rgb(203,68,29);"/></g></g><path d="M1248.67,3086.39C1248.67,3086.39 1171.34,3116.01 1132.67,3115.19C1094,3114.37 1018.75,3287.56 1027.8,3308.13C1102.49,3210.16 1159.6,3160.73 1159.6,3160.73C1159.6,3160.73 1240.62,3172.42 1271.89,3136.22C1303.15,3100.02 1277.47,3078.17 1248.67,3086.39Z" style="fill:none;stroke:rgb(107,0,0);stroke-width:23.88px;"/></g><g transform="matrix(0.333554,0.276899,-0.20789,0.444277,525.73,-1174.27)"><path d="M1248.67,3086.39C1248.67,3086.39 1171.34,3116.01 1132.67,3115.19C1094,3114.37 1046.2,3305.16 1055.25,3325.73C1093.82,3213.76 1159.6,3160.73 1159.6,3160.73C1159.6,3160.73 1240.62,3172.42 1271.89,3136.22C1303.15,3100.02 1277.47,3078.17 1248.67,3086.39Z" style="fill:rgb(203,68,29);"/><clipPath id="_clip2"><path d="M1248.67,3086.39C1248.67,3086.39 1171.34,3116.01 1132.67,3115.19C1094,3114.37 1046.2,3305.16 1055.25,3325.73C1093.82,3213.76 1159.6,3160.73 1159.6,3160.73C1159.6,3160.73 1240.62,3172.42 1271.89,3136.22C1303.15,3100.02 1277.47,3078.17 1248.67,3086.39Z"/></clipPath><g clip-path="url(#_clip2)"><g transform="matrix(-1.12778,0.0453497,0.0597743,1.4865,2692.11,2023.4)"><path d="M1417,671.423C1417,671.423 1420.04,699.73 1405.55,720.961C1432.17,706.807 1437.22,696.023 1447.33,674.456C1457.44,652.888 1417,671.423 1417,671.423Z" style="fill:rgb(203,68,29);"/></g></g><path d="M1248.67,3086.39C1248.67,3086.39 1171.34,3116.01 1132.67,3115.19C1094,3114.37 1046.2,3305.16 1055.25,3325.73C1093.82,3213.76 1159.6,3160.73 1159.6,3160.73C1159.6,3160.73 1240.62,3172.42 1271.89,3136.22C1303.15,3100.02 1277.47,3078.17 1248.67,3086.39Z" style="fill:none;stroke:rgb(107,0,0);stroke-width:23.88px;"/></g><g transform="matrix(-0.907457,-0.559611,0.315436,-0.907457,1711.32,937.258)"><g transform="matrix(-0.512859,0.730323,0.548312,0.683102,-100.062,-3204.91)"><path d="M1308.7,3132.3C1308.7,3132.3 1261.97,3275.13 1399.54,3318.57C1410.07,3299.48 1412.7,3283.03 1412.7,3283.03C1412.7,3283.03 1297.52,3277.1 1336.35,3133.61C1323.05,3111.66 1308.7,3132.3 1308.7,3132.3Z" style="fill:rgb(239,107,68);stroke:rgb(107,0,0);stroke-width:8.33px;"/></g><g transform="matrix(-0.512859,0.730323,0.548312,0.683102,-100.062,-3204.91)"><path d="M1657.77,3270.31C1657.77,3270.31 1606.43,3234.77 1516.92,3242.01C1427.4,3249.25 1410.95,3282.16 1410.95,3282.16L1399.1,3317.7C1399.1,3317.7 1397.12,3409.19 1493.88,3438.81C1590.63,3468.43 1701.21,3411.82 1708.45,3351.27C1608.41,3352.58 1536.66,3336.79 1536.66,3336.79L1657.77,3270.31Z" style="fill:rgb(239,107,68);"/><clipPath id="_clip3"><path d="M1657.77,3270.31C1657.77,3270.31 1606.43,3234.77 1516.92,3242.01C1427.4,3249.25 1410.95,3282.16 1410.95,3282.16L1399.1,3317.7C1399.1,3317.7 1397.12,3409.19 1493.88,3438.81C1590.63,3468.43 1701.21,3411.82 1708.45,3351.27C1608.41,3352.58 1536.66,3336.79 1536.66,3336.79L1657.77,3270.31Z"/></clipPath><g clip-path="url(#_clip3)"><g transform="matrix(1.00142,0.0407834,0.0358554,-0.880419,575.095,4121.75)"><path d="M767.134,917.973C767.134,917.973 850.231,1013.41 972.821,990.375C1095.41,967.338 1115.98,943.478 1115.98,943.478C1115.98,943.478 1076.49,1048.79 992.567,1061.13C908.646,1073.47 787.703,1026.58 761.375,968.983C735.047,911.391 767.134,917.973 767.134,917.973Z" style="fill:rgb(203,68,29);"/></g></g><path d="M1657.77,3270.31C1657.77,3270.31 1606.43,3234.77 1516.92,3242.01C1427.4,3249.25 1410.95,3282.16 1410.95,3282.16L1399.1,3317.7C1399.1,3317.7 1397.12,3409.19 1493.88,3438.81C1590.63,3468.43 1701.21,3411.82 1708.45,3351.27C1608.41,3352.58 1536.66,3336.79 1536.66,3336.79L1657.77,3270.31Z" style="fill:none;stroke:rgb(107,0,0);stroke-width:12.5px;"/></g><g transform="matrix(-0.823645,0.435127,-0.276453,-0.928369,2210.31,590.895)"><path d="M1142.48,969.144C1142.48,969.144 1159.76,933.76 1207.36,912.276" style="fill:none;stroke:rgb(254,184,163);stroke-width:22.87px;"/></g></g><g transform="matrix(-0.846848,-0.708377,0.399291,-0.846848,518.627,1376.9)"><g transform="matrix(0.75078,0,-5.55112e-17,1,-549.558,-2388.1)"><path d="M1308.7,3132.3C1308.7,3132.3 1261.97,3275.13 1399.54,3318.57C1410.07,3299.48 1412.7,3283.03 1412.7,3283.03C1412.7,3283.03 1297.52,3277.1 1336.35,3133.61C1323.05,3111.66 1308.7,3132.3 1308.7,3132.3Z" style="fill:rgb(239,107,68);stroke:rgb(107,0,0);stroke-width:8.33px;"/></g><g transform="matrix(0.75078,0,-5.55112e-17,1,-549.558,-2388.1)"><path d="M1657.77,3270.31C1657.77,3270.31 1606.43,3234.77 1516.92,3242.01C1427.4,3249.25 1410.95,3282.16 1410.95,3282.16L1399.1,3317.7C1399.1,3317.7 1397.12,3409.19 1493.88,3438.81C1590.63,3468.43 1701.21,3411.82 1708.45,3351.27C1608.41,3352.58 1536.66,3336.79 1536.66,3336.79L1657.77,3270.31Z" style="fill:rgb(239,107,68);"/><clipPath id="_clip4"><path d="M1657.77,3270.31C1657.77,3270.31 1606.43,3234.77 1516.92,3242.01C1427.4,3249.25 1410.95,3282.16 1410.95,3282.16L1399.1,3317.7C1399.1,3317.7 1397.12,3409.19 1493.88,3438.81C1590.63,3468.43 1701.21,3411.82 1708.45,3351.27C1608.41,3352.58 1536.66,3336.79 1536.66,3336.79L1657.77,3270.31Z"/></clipPath><g clip-path="url(#_clip4)"><g transform="matrix(-0.997292,0.0735504,-0.0735504,-0.997292,2555.54,4209.6)"><path d="M767.134,917.973C767.134,917.973 850.231,1013.41 972.821,990.375C1095.41,967.338 1115.98,943.478 1115.98,943.478C1115.98,943.478 1076.49,1048.79 992.567,1061.13C908.646,1073.47 787.703,1026.58 761.375,968.983C735.047,911.391 767.134,917.973 767.134,917.973Z" style="fill:rgb(203,68,29);"/></g></g><path d="M1657.77,3270.31C1657.77,3270.31 1606.43,3234.77 1516.92,3242.01C1427.4,3249.25 1410.95,3282.16 1410.95,3282.16L1399.1,3317.7C1399.1,3317.7 1397.12,3409.19 1493.88,3438.81C1590.63,3468.43 1701.21,3411.82 1708.45,3351.27C1608.41,3352.58 1536.66,3336.79 1536.66,3336.79L1657.77,3270.31Z" style="fill:none;stroke:rgb(107,0,0);stroke-width:12.5px;"/></g><g transform="matrix(-0.475485,-0.37225,0.217544,-0.492975,1008.01,1916.54)"><path d="M1142.48,969.144C1142.48,969.144 1159.76,933.76 1207.36,912.276" style="fill:none;stroke:rgb(254,184,163);stroke-width:37.98px;"/></g></g><g transform="matrix(0.75078,0,0,1,-549.558,-2388.1)"><path d="M1110.2,2904.44C1110.2,2904.44 1142.34,2914.72 1184.76,2882.59C1227.18,2850.45 1362.57,2706.35 1565.28,2705.18C1788.97,2703.89 1942.32,2865.49 1992.09,2886.44C2040.94,2907.01 2057.65,2874.87 2057.65,2909.58C2057.65,2937.06 1962.52,3212.97 1556.29,3215.54C1150.05,3218.11 1034.35,2901.87 1110.2,2904.44Z" style="fill:rgb(239,107,68);"/><clipPath id="_clip5"><path d="M1110.2,2904.44C1110.2,2904.44 1142.34,2914.72 1184.76,2882.59C1227.18,2850.45 1362.57,2706.35 1565.28,2705.18C1788.97,2703.89 1942.32,2865.49 1992.09,2886.44C2040.94,2907.01 2057.65,2874.87 2057.65,2909.58C2057.65,2937.06 1962.52,3212.97 1556.29,3215.54C1150.05,3218.11 1034.35,2901.87 1110.2,2904.44Z"/></clipPath><g clip-path="url(#_clip5)"><g transform="matrix(1,0,0,1,617.9,2407.85)"><path d="M479.157,464.062C479.157,464.062 563.601,580.432 636.601,679.485C718.192,790.195 942.597,861.3 1139.95,777.16C1345.74,689.422 1396.23,476.568 1454.61,448.924C1512.98,421.279 1468.88,535.806 1432.68,608.866C1396.48,681.926 1225.35,860.955 937.715,847.133C650.083,833.311 432.22,630.586 437.485,545.021C442.751,459.455 451.06,441.684 479.157,464.062Z" style="fill:rgb(203,68,29);"/></g><g transform="matrix(1,0,0,1,617.209,2411.99)"><path d="M743.144,802.692C743.144,802.692 821.821,737.128 975.033,726.776C1128.25,716.423 1215.89,775.086 1215.89,775.086C1215.89,775.086 932.244,901.383 743.144,802.692Z" style="fill:rgb(254,184,163);"/></g></g><path d="M1110.2,2904.44C1110.2,2904.44 1142.34,2914.72 1184.76,2882.59C1227.18,2850.45 1362.57,2706.35 1565.28,2705.18C1788.97,2703.89 1942.32,2865.49 1992.09,2886.44C2040.94,2907.01 2057.65,2874.87 2057.65,2909.58C2057.65,2937.06 1962.52,3212.97 1556.29,3215.54C1150.05,3218.11 1034.35,2901.87 1110.2,2904.44Z" style="fill:none;stroke:rgb(107,0,0);stroke-width:16.67px;"/></g><g transform="matrix(0.75078,0,0,1,-549.558,-2388.1)"><circle cx="1441.47" cy="3014.57" r="92.148" style="fill:white;stroke:rgb(107,0,0);stroke-width:12.5px;"/></g><g transform="matrix(0.75078,0,0,1,-322.244,-2409.49)"><circle cx="1441.47" cy="3014.57" r="92.148" style="fill:white;stroke:rgb(107,0,0);stroke-width:12.5px;"/></g><g transform="matrix(0.75078,0,0,1,-549.558,-2388.1)"><path d="M1547.1,3059.33C1547.1,3059.33 1554.34,3107.38 1589.88,3101.46C1625.42,3095.53 1626.08,3048.14 1626.08,3048.14" style="fill:none;stroke:rgb(107,0,0);stroke-width:12.5px;"/></g><g transform="matrix(0.446763,0.195258,-0.206611,0.838682,531.703,-2158.1)"><circle cx="1421.8" cy="3047.33" r="39.229" style="fill:rgb(107,0,0);"/></g><g transform="matrix(0.460388,0.127274,-0.134674,0.864259,515.104,-2159.6)"><circle cx="1421.8" cy="3047.33" r="39.229" style="fill:rgb(107,0,0);"/></g><g transform="matrix(0.643759,0.514561,-0.386322,0.857454,184.138,-58.9303)"><ellipse cx="611.328" cy="302.848" rx="8.162" ry="16.06" style="fill:rgb(107,0,0);"/></g><g transform="matrix(0.635672,-0.532099,0.399489,0.846682,320.733,572.337)"><ellipse cx="611.328" cy="302.848" rx="8.162" ry="16.06" style="fill:rgb(107,0,0);"/></g><g transform="matrix(0.75078,0,0,1,-85.6515,19.7452)"><ellipse cx="702.804" cy="671.319" rx="13.427" ry="14.48" style="fill:rgb(254,184,163);"/></g><g transform="matrix(0.75078,0,0,1,316.793,-12.3748)"><ellipse cx="702.804" cy="671.319" rx="13.427" ry="14.48" style="fill:rgb(254,184,163);"/></g><g transform="matrix(0.75078,0,0,1,253.17,-246.857)"><ellipse cx="702.804" cy="671.319" rx="13.427" ry="14.48" style="fill:rgb(254,184,163);"/></g><g transform="matrix(0.271426,0.639504,-0.373729,0.281411,768.285,-625.008)"><path d="M1142.48,969.144C1142.48,969.144 1159.76,933.76 1207.36,912.276" style="fill:none;stroke:rgb(254,184,163);stroke-width:37.98px;"/></g><g transform="matrix(0.471671,0.172308,-0.129365,0.628242,114.732,-1554.49)"><path d="M1248.67,3086.39C1248.67,3086.39 1171.34,3116.01 1132.67,3115.19C1094,3114.37 983.496,3246.6 992.546,3267.17C1082.34,3184.16 1148.96,3159.97 1148.96,3159.97C1148.96,3159.97 1245.46,3164.78 1277.5,3133.35C1307.81,3103.61 1277.47,3078.17 1248.67,3086.39Z" style="fill:rgb(239,107,68);"/><clipPath id="_clip6"><path d="M1248.67,3086.39C1248.67,3086.39 1171.34,3116.01 1132.67,3115.19C1094,3114.37 983.496,3246.6 992.546,3267.17C1082.34,3184.16 1148.96,3159.97 1148.96,3159.97C1148.96,3159.97 1245.46,3164.78 1277.5,3133.35C1307.81,3103.61 1277.47,3078.17 1248.67,3086.39Z"/></clipPath><g clip-path="url(#_clip6)"><g transform="matrix(-0.76966,0.0648653,0.0914149,1.08469,2160.86,2278.49)"><path d="M1417,671.423C1417,671.423 1420.04,699.73 1405.55,720.961C1432.17,706.807 1437.22,696.023 1447.33,674.456C1457.44,652.888 1417,671.423 1417,671.423Z" style="fill:rgb(203,68,29);"/></g></g><path d="M1248.67,3086.39C1248.67,3086.39 1171.34,3116.01 1132.67,3115.19C1094,3114.37 983.496,3246.6 992.546,3267.17C1082.34,3184.16 1148.96,3159.97 1148.96,3159.97C1148.96,3159.97 1245.46,3164.78 1277.5,3133.35C1307.81,3103.61 1277.47,3078.17 1248.67,3086.39Z" style="fill:none;stroke:rgb(107,0,0);stroke-width:19.19px;"/></g><g transform="matrix(-0.479899,0.125696,0.0943703,0.639201,1269.68,-1532.44)"><path d="M1248.67,3086.39C1248.67,3086.39 1171.34,3116.01 1132.67,3115.19C1094,3114.37 954.962,3229.01 964.012,3249.58C1004.35,3219.75 1148.96,3159.97 1148.96,3159.97C1148.96,3159.97 1245.46,3164.78 1277.5,3133.35C1307.81,3103.61 1277.47,3078.17 1248.67,3086.39Z" style="fill:rgb(239,107,68);"/><clipPath id="_clip7"><path d="M1248.67,3086.39C1248.67,3086.39 1171.34,3116.01 1132.67,3115.19C1094,3114.37 954.962,3229.01 964.012,3249.58C1004.35,3219.75 1148.96,3159.97 1148.96,3159.97C1148.96,3159.97 1245.46,3164.78 1277.5,3133.35C1307.81,3103.61 1277.47,3078.17 1248.67,3086.39Z"/></clipPath><g clip-path="url(#_clip7)"><g transform="matrix(-0.76966,0.0648653,0.0914149,1.08469,2160.86,2278.49)"><path d="M1417,671.423C1417,671.423 1420.04,699.73 1405.55,720.961C1432.17,706.807 1437.22,696.023 1447.33,674.456C1457.44,652.888 1417,671.423 1417,671.423Z" style="fill:rgb(203,68,29);"/></g></g><path d="M1248.67,3086.39C1248.67,3086.39 1171.34,3116.01 1132.67,3115.19C1094,3114.37 954.962,3229.01 964.012,3249.58C1004.35,3219.75 1148.96,3159.97 1148.96,3159.97C1148.96,3159.97 1245.46,3164.78 1277.5,3133.35C1307.81,3103.61 1277.47,3078.17 1248.67,3086.39Z" style="fill:none;stroke:rgb(107,0,0);stroke-width:19.19px;"/></g><g transform="matrix(0.561298,-0.1038,0.0779306,0.74762,-613.523,-1535.24)"><path d="M1248.67,3086.39C1248.67,3086.39 1171.34,3116.01 1132.67,3115.19C1094,3114.37 929.013,3173.21 938.063,3193.77C1070.05,3153.19 1148.96,3159.97 1148.96,3159.97C1148.96,3159.97 1245.46,3164.78 1277.5,3133.35C1307.81,3103.61 1277.47,3078.17 1248.67,3086.39Z" style="fill:rgb(239,107,68);"/><clipPath id="_clip8"><path d="M1248.67,3086.39C1248.67,3086.39 1171.34,3116.01 1132.67,3115.19C1094,3114.37 929.013,3173.21 938.063,3193.77C1070.05,3153.19 1148.96,3159.97 1148.96,3159.97C1148.96,3159.97 1245.46,3164.78 1277.5,3133.35C1307.81,3103.61 1277.47,3078.17 1248.67,3086.39Z"/></clipPath><g clip-path="url(#_clip8)"><g transform="matrix(-0.76966,0.0648653,0.0914149,1.08469,2160.86,2278.49)"><path d="M1417,671.423C1417,671.423 1420.04,699.73 1405.55,720.961C1432.17,706.807 1437.22,696.023 1447.33,674.456C1457.44,652.888 1417,671.423 1417,671.423Z" style="fill:rgb(203,68,29);"/></g></g><path d="M1248.67,3086.39C1248.67,3086.39 1171.34,3116.01 1132.67,3115.19C1094,3114.37 929.013,3173.21 938.063,3193.77C1070.05,3153.19 1148.96,3159.97 1148.96,3159.97C1148.96,3159.97 1245.46,3164.78 1277.5,3133.35C1307.81,3103.61 1277.47,3078.17 1248.67,3086.39Z" style="fill:none;stroke:rgb(107,0,0);stroke-width:16.56px;"/></g><g transform="matrix(-0.554058,-0.158433,-0.118949,0.737976,1994.91,-1441.99)"><path d="M1248.67,3086.39C1248.67,3086.39 1171.34,3116.01 1132.67,3115.19C1094,3114.37 965.488,3131.32 946.018,3170.53C1021.37,3152.46 1148.96,3159.97 1148.96,3159.97C1148.96,3159.97 1245.46,3164.78 1277.5,3133.35C1307.81,3103.61 1277.47,3078.17 1248.67,3086.39Z" style="fill:rgb(239,107,68);"/><clipPath id="_clip9"><path d="M1248.67,3086.39C1248.67,3086.39 1171.34,3116.01 1132.67,3115.19C1094,3114.37 965.488,3131.32 946.018,3170.53C1021.37,3152.46 1148.96,3159.97 1148.96,3159.97C1148.96,3159.97 1245.46,3164.78 1277.5,3133.35C1307.81,3103.61 1277.47,3078.17 1248.67,3086.39Z"/></clipPath><g clip-path="url(#_clip9)"><g transform="matrix(-0.76966,0.0648653,0.0914149,1.08469,2160.86,2278.49)"><path d="M1417,671.423C1417,671.423 1420.04,699.73 1405.55,720.961C1432.17,706.807 1437.22,696.023 1447.33,674.456C1457.44,652.888 1417,671.423 1417,671.423Z" style="fill:rgb(203,68,29);"/></g></g><path d="M1248.67,3086.39C1248.67,3086.39 1171.34,3116.01 1132.67,3115.19C1094,3114.37 965.488,3131.32 946.018,3170.53C1021.37,3152.46 1148.96,3159.97 1148.96,3159.97C1148.96,3159.97 1245.46,3164.78 1277.5,3133.35C1307.81,3103.61 1277.47,3078.17 1248.67,3086.39Z" style="fill:none;stroke:rgb(107,0,0);stroke-width:16.56px;"/></g></g><g transform="matrix(0.676776,0.278945,-0.32503,0.580818,4799.53,-224.228)"><path d="M949.862,8237.91C916.131,8152.28 897.6,8059.04 897.6,7961.49C897.6,7544.65 1236.03,7206.22 1652.87,7206.22C2069.71,7206.22 2408.14,7544.65 2408.14,7961.49C2408.14,8040.87 2395.87,8117.41 2373.12,8189.31C2262.7,7909.03 1989.41,7710.45 1670.11,7710.45C1332.64,7710.45 1046.58,7932.26 949.862,8237.91Z" style="fill:white;"/><clipPath id="_clip10"><path d="M949.862,8237.91C916.131,8152.28 897.6,8059.04 897.6,7961.49C897.6,7544.65 1236.03,7206.22 1652.87,7206.22C2069.71,7206.22 2408.14,7544.65 2408.14,7961.49C2408.14,8040.87 2395.87,8117.41 2373.12,8189.31C2262.7,7909.03 1989.41,7710.45 1670.11,7710.45C1332.64,7710.45 1046.58,7932.26 949.862,8237.91Z"/></clipPath><g clip-path="url(#_clip10)"><g transform="matrix(1,0,0,1,2456.51,452.515)"><path d="M-1563.35,7859.98C-1563.35,7859.98 -1665.73,7821.15 -1672.79,7600.49C-1679.85,7379.84 -1646.31,7213.9 -1510.39,6975.6C-1374.46,6737.29 -890.788,6675.51 -890.788,6675.51C-890.788,6675.51 -1441.54,6917.35 -1307.38,7535.18C-1446.84,7807.03 -1563.35,7859.98 -1563.35,7859.98Z" style="fill:rgb(52,28,214);"/></g><g transform="matrix(1,0,0,1,2448.22,452.515)"><path d="M-1318.63,7529.92C-1318.63,7529.92 -1371.63,7310.89 -1292.15,7106.27C-1217.79,6914.8 -1070.71,6768.5 -976.174,6728.5C-810.054,6658.22 -893.208,6686.02 -893.208,6686.02C-893.208,6686.02 -1094.44,6961.4 -953.226,7367.4C-1200.36,7595.12 -1318.63,7529.92 -1318.63,7529.92Z" style="fill:rgb(100,129,249);"/></g><g transform="matrix(1,0,0,1,2431.22,452.515)"><path d="M-895.515,6693.85L-997.645,6748.98C-997.645,6748.98 -1166.66,7029.26 -1074.47,7351.82C-982.28,7674.37 -716.562,7221.57 -562.012,7339.06C-407.461,7456.56 -334.253,6901.62 -565.627,6744.36C-797.001,6587.1 -895.515,6693.85 -895.515,6693.85Z" style="fill:rgb(255,209,193);"/></g><g transform="matrix(1,0,0,1,2327.32,452.515)"><path d="M-605.454,6734.07C-605.454,6734.07 -377.738,6952.96 -540.14,7501.95C-372.442,7599.04 -270.058,7697.89 -270.058,7697.89C-270.058,7697.89 21.206,7175.38 -411.277,6799.38C-730.021,6522.27 -605.454,6734.07 -605.454,6734.07Z" style="fill:rgb(52,28,214);"/></g><g transform="matrix(1,0,0,1,2456.51,452.515)"><path d="M-617.782,6767.65C-617.782,6767.65 -310.659,6848.81 -321.25,7426.04C-331.842,8003.28 -21.159,7844.41 -21.159,7844.41C-21.159,7844.41 65.337,7704.95 -5.272,7376.62C-75.882,7048.28 -358.292,6757.06 -617.782,6767.65Z" style="fill:rgb(100,129,249);"/></g></g></g><g transform="matrix(0.75078,0,0,0.644329,-64.4993,0)"><path d="M3772.69,7486.94L3971.8,8115.8" style="fill:none;stroke:black;stroke-width:8.33px;"/></g><g transform="matrix(0.744389,0.00264712,0.00308445,0.643052,-61.2891,-1.3297)"><path d="M4517.87,8326.32L5078.37,8053.72" style="fill:none;stroke:black;stroke-width:8.33px;"/></g><g transform="matrix(0.75078,0,0,0.644329,-64.4993,0)"><path d="M4053.84,7298.25L4060.9,8089.07" style="fill:none;stroke:black;stroke-width:8.33px;"/></g><g transform="matrix(0.75078,0,0,0.644329,-64.4993,0)"><path d="M4327.45,7250.59L4177.41,8104.96" style="fill:none;stroke:black;stroke-width:8.33px;"/></g><g transform="matrix(0.75078,0,0,0.644329,-64.4993,0)"><path d="M4788.18,7412.99L4371.58,8180.87" style="fill:none;stroke:black;stroke-width:8.33px;"/></g><g transform="matrix(0.75078,0,0,0.644329,-64.4993,0)"><path d="M4991.18,7667.18L4451.02,8246.18" style="fill:none;stroke:black;stroke-width:8.33px;"/></g></g><g transform="matrix(5.90686,1.63802,-1.76277,3.17112,-14299.8,-20138.6)"><g transform="matrix(0.880303,0,0,1.24058,3475.63,1879.39)"><path d="M1143.26,2904.12C1143.26,2904.12 1137.19,2843.47 1151.68,2833.02C1166.18,2822.57 1218.75,2852.23 1218.75,2852.23" style="fill:rgb(239,107,68);stroke:rgb(107,0,0);stroke-width:6.9px;"/></g><g transform="matrix(0.395327,1.04764,-0.8322,0.55712,6852.69,2602.02)"><path d="M1143.26,2904.12C1143.26,2904.12 1137.19,2843.47 1151.68,2833.02C1166.18,2822.57 1218.75,2852.23 1218.75,2852.23" style="fill:rgb(239,107,68);stroke:rgb(107,0,0);stroke-width:6.9px;"/></g><g transform="matrix(0.683564,0,0,0.963323,3634.52,2751.3)"><path d="M1143.26,2904.12C1143.26,2904.12 1137.19,2843.47 1151.68,2833.02C1166.18,2822.57 1218.75,2852.23 1218.75,2852.23" style="fill:rgb(239,107,68);stroke:rgb(107,0,0);stroke-width:8.89px;"/></g><g transform="matrix(0.207371,0.867565,-0.68916,0.292241,6734.84,3636.38)"><path d="M1143.26,2904.12C1143.26,2904.12 1137.19,2843.47 1151.68,2833.02C1166.18,2822.57 1218.75,2852.23 1218.75,2852.23" style="fill:rgb(239,107,68);stroke:rgb(107,0,0);stroke-width:8.89px;"/></g><g transform="matrix(1.02891,0.320967,-0.246191,1.40012,4103.69,980.667)"><path d="M1143.26,2904.12C1143.26,2904.12 1137.19,2843.47 1151.68,2833.02C1166.18,2822.57 1218.75,2852.23 1218.75,2852.23" style="fill:rgb(239,107,68);stroke:rgb(107,0,0);stroke-width:5.86px;"/></g><g transform="matrix(0.884985,0.769226,-0.590019,1.20427,5369.13,987.874)"><path d="M1143.26,2904.12C1143.26,2904.12 1137.19,2843.47 1151.68,2833.02C1166.18,2822.57 1218.75,2852.23 1218.75,2852.23" style="fill:rgb(239,107,68);stroke:rgb(107,0,0);stroke-width:5.86px;"/></g><g transform="matrix(0.662875,1.09619,-0.84081,0.902025,6462.6,1493.88)"><path d="M1143.26,2904.12C1143.26,2904.12 1137.19,2843.47 1151.68,2833.02C1166.18,2822.57 1218.75,2852.23 1218.75,2852.23" style="fill:rgb(239,107,68);stroke:rgb(107,0,0);stroke-width:5.86px;"/></g></g></g></g></g></svg>