<?xml version="1.0" encoding="UTF-8" standalone="no"?><!DOCTYPE svg PUBLIC "-//W3C//DTD SVG 1.1//EN" "http://www.w3.org/Graphics/SVG/1.1/DTD/svg11.dtd"><svg width="100%" height="100%" viewBox="0 0 681 681" version="1.1" xmlns="http://www.w3.org/2000/svg" xmlns:xlink="http://www.w3.org/1999/xlink" xml:space="preserve" xmlns:serif="http://www.serif.com/" style="fill-rule:evenodd;clip-rule:evenodd;stroke-linecap:round;stroke-linejoin:round;stroke-miterlimit:1.5;"><g transform="matrix(0.48,0,0,0.48,-775.617,-2879.9)"><g id="_17" serif:id="17" transform="matrix(0.142687,0,0,0.20202,1615.87,5999.79)"><rect x="0" y="0" width="9933.07" height="7015.75" style="fill:none;"/><g transform="matrix(6.1252,0,0,5.04098,-24697.7,-22870.8)"><g transform="matrix(0.75078,0,0,0.644329,-64.4993,0)"><path d="M5773.12,7358.64C5773.12,7358.64 6196.03,7630.78 6427.72,7443.22C6659.4,7255.67 6714.57,7086.5 6714.57,7086.5C6714.57,7086.5 6666.76,7531.48 6872.7,7641.81C7078.65,7752.14 7516.27,7619.74 7516.27,7619.74C7516.27,7619.74 7063.94,7895.56 7185.29,8083.11C7306.65,8270.67 7450.08,8322.16 7450.08,8322.16C7450.08,8322.16 7078.65,8211.83 7067.61,8450.87C7056.58,8689.91 7251.49,8928.95 7251.49,8928.95C7251.49,8928.95 6857.99,8638.42 6751.34,8745.07C6644.69,8851.72 6582.18,9068.7 6582.18,9068.7C6582.18,9068.7 6578.5,8711.98 6460.82,8689.91C6343.14,8667.85 5905.51,8995.15 5905.51,8995.15C5905.51,8995.15 6166.61,8693.59 6100.42,8498.68C6034.22,8303.77 5541.43,8259.64 5541.43,8259.64C5541.43,8259.64 6004.8,8079.44 5990.09,7855.11C5975.38,7630.78 5773.12,7358.64 5773.12,7358.64Z" style="fill:rgb(251,188,31);"/></g><g transform="matrix(1,0,0,0.644329,4206.26,4853.65)"><g transform="matrix(0.264405,0.387335,-0.290803,0.352174,869.79,-1046.91)"><path d="M1248.67,3086.39C1248.67,3086.39 1171.34,3116.01 1132.67,3115.19C1094,3114.37 1101.4,3301.95 1110.45,3322.52C1140.48,3177.14 1159.6,3160.73 1159.6,3160.73C1159.6,3160.73 1240.62,3172.42 1271.89,3136.22C1303.15,3100.02 1277.47,3078.17 1248.67,3086.39Z" style="fill:rgb(203,68,29);"/><clipPath id="_clip1"><path d="M1248.67,3086.39C1248.67,3086.39 1171.34,3116.01 1132.67,3115.19C1094,3114.37 1101.4,3301.95 1110.45,3322.52C1140.48,3177.14 1159.6,3160.73 1159.6,3160.73C1159.6,3160.73 1240.62,3172.42 1271.89,3136.22C1303.15,3100.02 1277.47,3078.17 1248.67,3086.39Z"/></clipPath><g clip-path="url(#_clip1)"><g transform="matrix(-1.12778,0.0453497,0.0597743,1.4865,2692.11,2023.4)"><path d="M1417,671.423C1417,671.423 1420.04,699.73 1405.55,720.961C1432.17,706.807 1437.22,696.023 1447.33,674.456C1457.44,652.888 1417,671.423 1417,671.423Z" style="fill:rgb(203,68,29);"/></g></g><path d="M1248.67,3086.39C1248.67,3086.39 1171.34,3116.01 1132.67,3115.19C1094,3114.37 1101.4,3301.95 1110.45,3322.52C1140.48,3177.14 1159.6,3160.73 1159.6,3160.73C1159.6,3160.73 1240.62,3172.42 1271.89,3136.22C1303.15,3100.02 1277.47,3078.17 1248.67,3086.39Z" style="fill:none;stroke:rgb(107,0,0);stroke-width:23.88px;"/></g><g transform="matrix(-0.264405,0.387335,0.290803,0.352174,394.994,-1051.41)"><path d="M1248.67,3086.39C1248.67,3086.39 1171.34,3116.01 1132.67,3115.19C1094,3114.37 1101.4,3301.95 1110.45,3322.52C1140.48,3177.14 1159.6,3160.73 1159.6,3160.73C1159.6,3160.73 1240.62,3172.42 1271.89,3136.22C1303.15,3100.02 1277.47,3078.17 1248.67,3086.39Z" style="fill:rgb(203,68,29);"/><clipPath id="_clip2"><path d="M1248.67,3086.39C1248.67,3086.39 1171.34,3116.01 1132.67,3115.19C1094,3114.37 1101.4,3301.95 1110.45,3322.52C1140.48,3177.14 1159.6,3160.73 1159.6,3160.73C1159.6,3160.73 1240.62,3172.42 1271.89,3136.22C1303.15,3100.02 1277.47,3078.17 1248.67,3086.39Z"/></clipPath><g clip-path="url(#_clip2)"><g transform="matrix(-1.12778,0.0453497,0.0597743,1.4865,2692.11,2023.4)"><path d="M1417,671.423C1417,671.423 1420.04,699.73 1405.55,720.961C1432.17,706.807 1437.22,696.023 1447.33,674.456C1457.44,652.888 1417,671.423 1417,671.423Z" style="fill:rgb(203,68,29);"/></g></g><path d="M1248.67,3086.39C1248.67,3086.39 1171.34,3116.01 1132.67,3115.19C1094,3114.37 1101.4,3301.95 1110.45,3322.52C1140.48,3177.14 1159.6,3160.73 1159.6,3160.73C1159.6,3160.73 1240.62,3172.42 1271.89,3136.22C1303.15,3100.02 1277.47,3078.17 1248.67,3086.39Z" style="fill:none;stroke:rgb(107,0,0);stroke-width:23.88px;"/></g><g transform="matrix(0.0980207,-0.991441,-0.744354,-0.130558,2714.06,2176.2)"><path d="M1308.7,3132.3C1308.7,3132.3 1261.97,3275.13 1399.54,3318.57C1410.07,3299.48 1412.7,3283.03 1412.7,3283.03C1412.7,3283.03 1297.52,3277.1 1336.35,3133.61C1323.05,3111.66 1308.7,3132.3 1308.7,3132.3Z" style="fill:rgb(239,107,68);stroke:rgb(107,0,0);stroke-width:8.33px;"/></g><g transform="matrix(0.0980207,-0.991441,-0.744354,-0.130558,2714.06,2176.2)"><path d="M1657.77,3270.31C1657.77,3270.31 1606.43,3234.77 1516.92,3242.01C1427.4,3249.25 1410.95,3282.16 1410.95,3282.16L1399.1,3317.7C1399.1,3317.7 1397.12,3409.19 1493.88,3438.81C1590.63,3468.43 1701.21,3411.82 1708.45,3351.27C1608.41,3352.58 1536.66,3336.79 1536.66,3336.79L1657.77,3270.31Z" style="fill:rgb(239,107,68);"/><clipPath id="_clip3"><path d="M1657.77,3270.31C1657.77,3270.31 1606.43,3234.77 1516.92,3242.01C1427.4,3249.25 1410.95,3282.16 1410.95,3282.16L1399.1,3317.7C1399.1,3317.7 1397.12,3409.19 1493.88,3438.81C1590.63,3468.43 1701.21,3411.82 1708.45,3351.27C1608.41,3352.58 1536.66,3336.79 1536.66,3336.79L1657.77,3270.31Z"/></clipPath><g clip-path="url(#_clip3)"><g transform="matrix(1,0,0,1,617.9,2407.85)"><path d="M767.134,917.973C767.134,917.973 850.231,1013.41 972.821,990.375C1095.41,967.338 1115.98,943.478 1115.98,943.478C1115.98,943.478 1076.49,1048.79 992.567,1061.13C908.646,1073.47 787.703,1026.58 761.375,968.983C735.047,911.391 767.134,917.973 767.134,917.973Z" style="fill:rgb(203,68,29);"/></g></g><path d="M1657.77,3270.31C1657.77,3270.31 1606.43,3234.77 1516.92,3242.01C1427.4,3249.25 1410.95,3282.16 1410.95,3282.16L1399.1,3317.7C1399.1,3317.7 1397.12,3409.19 1493.88,3438.81C1590.63,3468.43 1701.21,3411.82 1708.45,3351.27C1608.41,3352.58 1536.66,3336.79 1536.66,3336.79L1657.77,3270.31Z" style="fill:none;stroke:rgb(107,0,0);stroke-width:12.5px;"/></g><g transform="matrix(-0.240539,-0.661074,-0.386335,0.249387,1072.93,759.034)"><path d="M1142.48,969.144C1142.48,969.144 1159.76,933.76 1207.36,912.276" style="fill:none;stroke:rgb(254,184,163);stroke-width:37.98px;"/></g><g transform="matrix(0.75078,0,0,1,-549.558,-2388.1)"><path d="M1110.2,2904.44C1110.2,2904.44 1142.34,2914.72 1184.76,2882.59C1227.18,2850.45 1362.57,2706.35 1565.28,2705.18C1788.97,2703.89 1942.32,2865.49 1992.09,2886.44C2040.94,2907.01 2057.65,2874.87 2057.65,2909.58C2057.65,2937.06 1962.52,3212.97 1556.29,3215.54C1150.05,3218.11 1034.35,2901.87 1110.2,2904.44Z" style="fill:rgb(239,107,68);"/><clipPath id="_clip4"><path d="M1110.2,2904.44C1110.2,2904.44 1142.34,2914.72 1184.76,2882.59C1227.18,2850.45 1362.57,2706.35 1565.28,2705.18C1788.97,2703.89 1942.32,2865.49 1992.09,2886.44C2040.94,2907.01 2057.65,2874.87 2057.65,2909.58C2057.65,2937.06 1962.52,3212.97 1556.29,3215.54C1150.05,3218.11 1034.35,2901.87 1110.2,2904.44Z"/></clipPath><g clip-path="url(#_clip4)"><g transform="matrix(1,0,0,1,617.9,2407.85)"><path d="M479.157,464.062C479.157,464.062 563.601,580.432 636.601,679.485C718.192,790.195 942.597,861.3 1139.95,777.16C1345.74,689.422 1396.23,476.568 1454.61,448.924C1512.98,421.279 1468.88,535.806 1432.68,608.866C1396.48,681.926 1225.35,860.955 937.715,847.133C650.083,833.311 432.22,630.586 437.485,545.021C442.751,459.455 451.06,441.684 479.157,464.062Z" style="fill:rgb(203,68,29);"/></g><g transform="matrix(1,0,0,1,617.209,2411.99)"><path d="M743.144,802.692C743.144,802.692 821.821,737.128 975.033,726.776C1128.25,716.423 1215.89,775.086 1215.89,775.086C1215.89,775.086 932.244,901.383 743.144,802.692Z" style="fill:rgb(254,184,163);"/></g></g><path d="M1110.2,2904.44C1110.2,2904.44 1142.34,2914.72 1184.76,2882.59C1227.18,2850.45 1362.57,2706.35 1565.28,2705.18C1788.97,2703.89 1942.32,2865.49 1992.09,2886.44C2040.94,2907.01 2057.65,2874.87 2057.65,2909.58C2057.65,2937.06 1962.52,3212.97 1556.29,3215.54C1150.05,3218.11 1034.35,2901.87 1110.2,2904.44Z" style="fill:none;stroke:rgb(107,0,0);stroke-width:16.67px;"/></g><g transform="matrix(1.00113,0,0,1.00113,-4095.09,-5033.64)"><g transform="matrix(0.880303,0,0,1.24058,3475.63,1879.39)"><path d="M1143.26,2904.12C1143.26,2904.12 1137.19,2843.47 1151.68,2833.02C1166.18,2822.57 1218.75,2852.23 1218.75,2852.23" style="fill:rgb(239,107,68);stroke:rgb(107,0,0);stroke-width:6.9px;"/></g><g transform="matrix(0.395327,1.04764,-0.8322,0.55712,6852.69,2602.02)"><path d="M1143.26,2904.12C1143.26,2904.12 1137.19,2843.47 1151.68,2833.02C1166.18,2822.57 1218.75,2852.23 1218.75,2852.23" style="fill:rgb(239,107,68);stroke:rgb(107,0,0);stroke-width:6.9px;"/></g><g transform="matrix(0.683564,0,0,0.963323,3634.52,2751.3)"><path d="M1143.26,2904.12C1143.26,2904.12 1137.19,2843.47 1151.68,2833.02C1166.18,2822.57 1218.75,2852.23 1218.75,2852.23" style="fill:rgb(239,107,68);stroke:rgb(107,0,0);stroke-width:8.89px;"/></g><g transform="matrix(0.207371,0.867565,-0.68916,0.292241,6734.84,3636.38)"><path d="M1143.26,2904.12C1143.26,2904.12 1137.19,2843.47 1151.68,2833.02C1166.18,2822.57 1218.75,2852.23 1218.75,2852.23" style="fill:rgb(239,107,68);stroke:rgb(107,0,0);stroke-width:8.89px;"/></g><g transform="matrix(1.02891,0.320967,-0.246191,1.40012,4103.69,980.667)"><path d="M1143.26,2904.12C1143.26,2904.12 1137.19,2843.47 1151.68,2833.02C1166.18,2822.57 1218.75,2852.23 1218.75,2852.23" style="fill:rgb(239,107,68);stroke:rgb(107,0,0);stroke-width:5.86px;"/></g><g transform="matrix(0.884985,0.769226,-0.590019,1.20427,5369.13,987.874)"><path d="M1143.26,2904.12C1143.26,2904.12 1137.19,2843.47 1151.68,2833.02C1166.18,2822.57 1218.75,2852.23 1218.75,2852.23" style="fill:rgb(239,107,68);stroke:rgb(107,0,0);stroke-width:5.86px;"/></g><g transform="matrix(0.662875,1.09619,-0.84081,0.902025,6462.6,1493.88)"><path d="M1143.26,2904.12C1143.26,2904.12 1137.19,2843.47 1151.68,2833.02C1166.18,2822.57 1218.75,2852.23 1218.75,2852.23" style="fill:rgb(239,107,68);stroke:rgb(107,0,0);stroke-width:5.86px;"/></g></g><g transform="matrix(0.75078,0,0,1,-549.558,-2388.1)"><circle cx="1441.47" cy="3014.57" r="92.148" style="fill:white;stroke:rgb(107,0,0);stroke-width:12.5px;"/></g><g transform="matrix(0.75078,0,0,1,-322.244,-2409.49)"><circle cx="1441.47" cy="3014.57" r="92.148" style="fill:white;stroke:rgb(107,0,0);stroke-width:12.5px;"/></g><g transform="matrix(-0.512859,0.730323,0.548312,0.683102,-227.038,-2373.99)"><path d="M1308.7,3132.3C1308.7,3132.3 1261.97,3275.13 1399.54,3318.57C1410.07,3299.48 1412.7,3283.03 1412.7,3283.03C1412.7,3283.03 1297.52,3277.1 1336.35,3133.61C1323.05,3111.66 1308.7,3132.3 1308.7,3132.3Z" style="fill:rgb(239,107,68);stroke:rgb(107,0,0);stroke-width:8.33px;"/></g><g transform="matrix(-0.512859,0.730323,0.548312,0.683102,-227.038,-2373.99)"><path d="M1657.77,3270.31C1657.77,3270.31 1606.43,3234.77 1516.92,3242.01C1427.4,3249.25 1410.95,3282.16 1410.95,3282.16L1399.1,3317.7C1399.1,3317.7 1397.12,3409.19 1493.88,3438.81C1590.63,3468.43 1701.21,3411.82 1708.45,3351.27C1608.41,3352.58 1536.66,3336.79 1536.66,3336.79L1657.77,3270.31Z" style="fill:rgb(239,107,68);"/><clipPath id="_clip5"><path d="M1657.77,3270.31C1657.77,3270.31 1606.43,3234.77 1516.92,3242.01C1427.4,3249.25 1410.95,3282.16 1410.95,3282.16L1399.1,3317.7C1399.1,3317.7 1397.12,3409.19 1493.88,3438.81C1590.63,3468.43 1701.21,3411.82 1708.45,3351.27C1608.41,3352.58 1536.66,3336.79 1536.66,3336.79L1657.77,3270.31Z"/></clipPath><g clip-path="url(#_clip5)"><g transform="matrix(-1.00027,0.0629674,0.0553589,0.879408,2454.91,2479.73)"><path d="M767.134,917.973C767.134,917.973 850.231,1013.41 972.821,990.375C1095.41,967.338 1115.98,943.478 1115.98,943.478C1115.98,943.478 1076.49,1048.79 992.567,1061.13C908.646,1073.47 787.703,1026.58 761.375,968.983C735.047,911.391 767.134,917.973 767.134,917.973Z" style="fill:rgb(203,68,29);"/></g></g><path d="M1657.77,3270.31C1657.77,3270.31 1606.43,3234.77 1516.92,3242.01C1427.4,3249.25 1410.95,3282.16 1410.95,3282.16L1399.1,3317.7C1399.1,3317.7 1397.12,3409.19 1493.88,3438.81C1590.63,3468.43 1701.21,3411.82 1708.45,3351.27C1608.41,3352.58 1536.66,3336.79 1536.66,3336.79L1657.77,3270.31Z" style="fill:none;stroke:rgb(107,0,0);stroke-width:12.5px;"/></g><g transform="matrix(0.688664,0.398278,-0.299019,0.917265,-1642.83,-9167.54)"><ellipse cx="6746.57" cy="7830.85" rx="19.151" ry="36.131" style="fill:rgb(107,0,0);"/></g><g transform="matrix(0.4702,0,0,0.882678,-125.796,-2053.1)"><circle cx="1421.8" cy="3047.33" r="39.229" style="fill:rgb(107,0,0);"/></g><g transform="matrix(0.4702,0,0,0.882678,85.0456,-2068.72)"><circle cx="1421.8" cy="3047.33" r="39.229" style="fill:rgb(107,0,0);"/></g><g transform="matrix(0.643759,0.514561,-0.386322,0.857454,184.138,-58.9303)"><ellipse cx="611.328" cy="302.848" rx="8.162" ry="16.06" style="fill:rgb(107,0,0);"/></g><g transform="matrix(0.635672,-0.532099,0.399489,0.846682,320.733,572.337)"><ellipse cx="611.328" cy="302.848" rx="8.162" ry="16.06" style="fill:rgb(107,0,0);"/></g><g transform="matrix(0.75078,0,0,1,-85.6515,19.7452)"><ellipse cx="702.804" cy="671.319" rx="13.427" ry="14.48" style="fill:rgb(254,184,163);"/></g><g transform="matrix(0.75078,0,0,1,316.793,-12.3748)"><ellipse cx="702.804" cy="671.319" rx="13.427" ry="14.48" style="fill:rgb(254,184,163);"/></g><g transform="matrix(0.75078,0,0,1,253.17,-246.857)"><ellipse cx="702.804" cy="671.319" rx="13.427" ry="14.48" style="fill:rgb(254,184,163);"/></g><g transform="matrix(0.886066,0,0,0.998727,-235.638,21.3211)"><path d="M1142.48,969.144C1142.48,969.144 1159.76,933.76 1207.36,912.276" style="fill:none;stroke:rgb(254,184,163);stroke-width:22.87px;"/></g><g transform="matrix(0.271426,0.639504,-0.373729,0.281411,768.285,-625.008)"><path d="M1142.48,969.144C1142.48,969.144 1159.76,933.76 1207.36,912.276" style="fill:none;stroke:rgb(254,184,163);stroke-width:37.98px;"/></g><g transform="matrix(0.418677,0.336745,-0.252821,0.557656,560.422,-1566.7)"><path d="M1248.67,3086.39C1248.67,3086.39 1171.34,3116.01 1132.67,3115.19C1094,3114.37 1101.4,3301.95 1110.45,3322.52C1140.48,3177.14 1148.96,3159.97 1148.96,3159.97C1148.96,3159.97 1245.46,3164.78 1277.5,3133.35C1307.81,3103.61 1277.47,3078.17 1248.67,3086.39Z" style="fill:rgb(239,107,68);"/><clipPath id="_clip6"><path d="M1248.67,3086.39C1248.67,3086.39 1171.34,3116.01 1132.67,3115.19C1094,3114.37 1101.4,3301.95 1110.45,3322.52C1140.48,3177.14 1148.96,3159.97 1148.96,3159.97C1148.96,3159.97 1245.46,3164.78 1277.5,3133.35C1307.81,3103.61 1277.47,3078.17 1248.67,3086.39Z"/></clipPath><g clip-path="url(#_clip6)"><g transform="matrix(-0.76966,0.0648653,0.0914149,1.08469,2160.86,2278.49)"><path d="M1417,671.423C1417,671.423 1420.04,699.73 1405.55,720.961C1432.17,706.807 1437.22,696.023 1447.33,674.456C1457.44,652.888 1417,671.423 1417,671.423Z" style="fill:rgb(203,68,29);"/></g></g><path d="M1248.67,3086.39C1248.67,3086.39 1171.34,3116.01 1132.67,3115.19C1094,3114.37 1101.4,3301.95 1110.45,3322.52C1140.48,3177.14 1148.96,3159.97 1148.96,3159.97C1148.96,3159.97 1245.46,3164.78 1277.5,3133.35C1307.81,3103.61 1277.47,3078.17 1248.67,3086.39Z" style="fill:none;stroke:rgb(107,0,0);stroke-width:19.19px;"/></g><g transform="matrix(-0.418677,0.336745,0.252821,0.557656,704.362,-1571.19)"><path d="M1248.67,3086.39C1248.67,3086.39 1171.34,3116.01 1132.67,3115.19C1094,3114.37 1101.4,3301.95 1110.45,3322.52C1140.48,3177.14 1148.96,3159.97 1148.96,3159.97C1148.96,3159.97 1245.46,3164.78 1277.5,3133.35C1307.81,3103.61 1277.47,3078.17 1248.67,3086.39Z" style="fill:rgb(239,107,68);"/><clipPath id="_clip7"><path d="M1248.67,3086.39C1248.67,3086.39 1171.34,3116.01 1132.67,3115.19C1094,3114.37 1101.4,3301.95 1110.45,3322.52C1140.48,3177.14 1148.96,3159.97 1148.96,3159.97C1148.96,3159.97 1245.46,3164.78 1277.5,3133.35C1307.81,3103.61 1277.47,3078.17 1248.67,3086.39Z"/></clipPath><g clip-path="url(#_clip7)"><g transform="matrix(-0.76966,0.0648653,0.0914149,1.08469,2160.86,2278.49)"><path d="M1417,671.423C1417,671.423 1420.04,699.73 1405.55,720.961C1432.17,706.807 1437.22,696.023 1447.33,674.456C1457.44,652.888 1417,671.423 1417,671.423Z" style="fill:rgb(203,68,29);"/></g></g><path d="M1248.67,3086.39C1248.67,3086.39 1171.34,3116.01 1132.67,3115.19C1094,3114.37 1101.4,3301.95 1110.45,3322.52C1140.48,3177.14 1148.96,3159.97 1148.96,3159.97C1148.96,3159.97 1245.46,3164.78 1277.5,3133.35C1307.81,3103.61 1277.47,3078.17 1248.67,3086.39Z" style="fill:none;stroke:rgb(107,0,0);stroke-width:19.19px;"/></g><g transform="matrix(0.561325,0.103537,-0.0777333,0.747656,-144.291,-1812.1)"><path d="M1248.67,3086.39C1248.67,3086.39 1171.34,3116.01 1132.67,3115.19C1094,3114.37 1101.4,3301.95 1110.45,3322.52C1140.48,3177.14 1148.96,3159.97 1148.96,3159.97C1148.96,3159.97 1245.46,3164.78 1277.5,3133.35C1307.81,3103.61 1277.47,3078.17 1248.67,3086.39Z" style="fill:rgb(239,107,68);"/><clipPath id="_clip8"><path d="M1248.67,3086.39C1248.67,3086.39 1171.34,3116.01 1132.67,3115.19C1094,3114.37 1101.4,3301.95 1110.45,3322.52C1140.48,3177.14 1148.96,3159.97 1148.96,3159.97C1148.96,3159.97 1245.46,3164.78 1277.5,3133.35C1307.81,3103.61 1277.47,3078.17 1248.67,3086.39Z"/></clipPath><g clip-path="url(#_clip8)"><g transform="matrix(-0.76966,0.0648653,0.0914149,1.08469,2160.86,2278.49)"><path d="M1417,671.423C1417,671.423 1420.04,699.73 1405.55,720.961C1432.17,706.807 1437.22,696.023 1447.33,674.456C1457.44,652.888 1417,671.423 1417,671.423Z" style="fill:rgb(203,68,29);"/></g></g><path d="M1248.67,3086.39C1248.67,3086.39 1171.34,3116.01 1132.67,3115.19C1094,3114.37 1101.4,3301.95 1110.45,3322.52C1140.48,3177.14 1148.96,3159.97 1148.96,3159.97C1148.96,3159.97 1245.46,3164.78 1277.5,3133.35C1307.81,3103.61 1277.47,3078.17 1248.67,3086.39Z" style="fill:none;stroke:rgb(107,0,0);stroke-width:16.56px;"/></g><g transform="matrix(-0.561325,0.103537,0.0777333,0.747656,1409.08,-1816.59)"><path d="M1248.67,3086.39C1248.67,3086.39 1171.34,3116.01 1132.67,3115.19C1094,3114.37 1101.4,3301.95 1110.45,3322.52C1140.48,3177.14 1148.96,3159.97 1148.96,3159.97C1148.96,3159.97 1245.46,3164.78 1277.5,3133.35C1307.81,3103.61 1277.47,3078.17 1248.67,3086.39Z" style="fill:rgb(239,107,68);"/><clipPath id="_clip9"><path d="M1248.67,3086.39C1248.67,3086.39 1171.34,3116.01 1132.67,3115.19C1094,3114.37 1101.4,3301.95 1110.45,3322.52C1140.48,3177.14 1148.96,3159.97 1148.96,3159.97C1148.96,3159.97 1245.46,3164.78 1277.5,3133.35C1307.81,3103.61 1277.47,3078.17 1248.67,3086.39Z"/></clipPath><g clip-path="url(#_clip9)"><g transform="matrix(-0.76966,0.0648653,0.0914149,1.08469,2160.86,2278.49)"><path d="M1417,671.423C1417,671.423 1420.04,699.73 1405.55,720.961C1432.17,706.807 1437.22,696.023 1447.33,674.456C1457.44,652.888 1417,671.423 1417,671.423Z" style="fill:rgb(203,68,29);"/></g></g><path d="M1248.67,3086.39C1248.67,3086.39 1171.34,3116.01 1132.67,3115.19C1094,3114.37 1101.4,3301.95 1110.45,3322.52C1140.48,3177.14 1148.96,3159.97 1148.96,3159.97C1148.96,3159.97 1245.46,3164.78 1277.5,3133.35C1307.81,3103.61 1277.47,3078.17 1248.67,3086.39Z" style="fill:none;stroke:rgb(107,0,0);stroke-width:16.56px;"/></g></g><g transform="matrix(2.73781,0,0,2.34963,-10956.5,-18157.8)"><path d="M5686.15,10127C5622.8,10094.7 5579.39,10028.8 5579.39,9952.86C5579.39,9844.98 5666.97,9757.4 5774.85,9757.4C5882.73,9757.4 5970.31,9844.98 5970.31,9952.86C5970.31,10027.7 5928.15,10092.8 5866.3,10125.6C5858.34,10146.5 5852.6,10169.1 5850.29,10190.3C5844.5,10243.3 5803.21,10237.8 5777.98,10237.5C5752.76,10237.2 5699.9,10247.1 5698.93,10188.3C5698.56,10165.3 5692.96,10144.3 5686.15,10127Z" style="fill:none;stroke:rgb(107,0,0);stroke-width:12.5px;"/></g><g transform="matrix(0.75078,0,0,0.644329,-64.4993,0)"><path d="M6261.76,8889.86C6261.76,8889.86 6494.18,8963.41 6820.74,8889.86C6814.86,8960.47 6823.68,8960.47 6823.68,8960.47C6823.68,8960.47 6538.31,9028.14 6282.35,8960.47C6282.35,9031.08 6268.21,9027.65 6297.06,9035.23C6396.89,9061.48 6571.4,9097.42 6820.59,9023.47" style="fill:none;stroke:rgb(107,0,0);stroke-width:12.5px;"/></g></g></g></g></svg>