<?xml version="1.0" encoding="UTF-8" standalone="no"?><!DOCTYPE svg PUBLIC "-//W3C//DTD SVG 1.1//EN" "http://www.w3.org/Graphics/SVG/1.1/DTD/svg11.dtd"><svg width="100%" height="100%" viewBox="0 0 681 681" version="1.1" xmlns="http://www.w3.org/2000/svg" xmlns:xlink="http://www.w3.org/1999/xlink" xml:space="preserve" xmlns:serif="http://www.serif.com/" style="fill-rule:evenodd;clip-rule:evenodd;stroke-linecap:round;stroke-linejoin:round;stroke-miterlimit:1.5;"><g transform="matrix(0.48,0,0,0.48,-3102.47,-6285.87)"><g id="_35" serif:id="35" transform="matrix(0.142687,0,0,0.20202,6463.48,13095.6)"><rect x="0" y="0" width="9933.07" height="7015.75" style="fill:none;"/><g transform="matrix(10.1625,0,0,5.38893,-78260.8,-24998.5)"><g transform="matrix(0.514011,0.174303,-0.130863,0.684637,7586.77,2891.38)"><path d="M1248.67,3086.39C1248.67,3086.39 1171.34,3116.01 1132.67,3115.19C1094,3114.37 1101.4,3301.95 1110.45,3322.52C1140.48,3177.14 1159.6,3160.73 1159.6,3160.73C1159.6,3160.73 1240.62,3172.42 1271.89,3136.22C1303.15,3100.02 1277.47,3078.17 1248.67,3086.39Z" style="fill:rgb(203,68,29);"/><clipPath id="_clip1"><path d="M1248.67,3086.39C1248.67,3086.39 1171.34,3116.01 1132.67,3115.19C1094,3114.37 1101.4,3301.95 1110.45,3322.52C1140.48,3177.14 1159.6,3160.73 1159.6,3160.73C1159.6,3160.73 1240.62,3172.42 1271.89,3136.22C1303.15,3100.02 1277.47,3078.17 1248.67,3086.39Z"/></clipPath><g clip-path="url(#_clip1)"><g transform="matrix(-1.12778,0.0453497,0.0597743,1.4865,2692.11,2023.4)"><path d="M1417,671.423C1417,671.423 1420.04,699.73 1405.55,720.961C1432.17,706.807 1437.22,696.023 1447.33,674.456C1457.44,652.888 1417,671.423 1417,671.423Z" style="fill:rgb(203,68,29);"/></g></g><path d="M1248.67,3086.39C1248.67,3086.39 1171.34,3116.01 1132.67,3115.19C1094,3114.37 1101.4,3301.95 1110.45,3322.52C1140.48,3177.14 1159.6,3160.73 1159.6,3160.73C1159.6,3160.73 1240.62,3172.42 1271.89,3136.22C1303.15,3100.02 1277.47,3078.17 1248.67,3086.39Z" style="fill:none;stroke:rgb(107,0,0);stroke-width:16.25px;"/></g><g transform="matrix(-0.512391,0.182572,0.137071,0.682478,8771.63,2864.67)"><path d="M1248.67,3086.39C1248.67,3086.39 1171.34,3116.01 1132.67,3115.19C1094,3114.37 1101.4,3301.95 1110.45,3322.52C1140.48,3177.14 1159.6,3160.73 1159.6,3160.73C1159.6,3160.73 1240.62,3172.42 1271.89,3136.22C1303.15,3100.02 1277.47,3078.17 1248.67,3086.39Z" style="fill:rgb(203,68,29);"/><clipPath id="_clip2"><path d="M1248.67,3086.39C1248.67,3086.39 1171.34,3116.01 1132.67,3115.19C1094,3114.37 1101.4,3301.95 1110.45,3322.52C1140.48,3177.14 1159.6,3160.73 1159.6,3160.73C1159.6,3160.73 1240.62,3172.42 1271.89,3136.22C1303.15,3100.02 1277.47,3078.17 1248.67,3086.39Z"/></clipPath><g clip-path="url(#_clip2)"><g transform="matrix(-1.12778,0.0453497,0.0597743,1.4865,2692.11,2023.4)"><path d="M1417,671.423C1417,671.423 1420.04,699.73 1405.55,720.961C1432.17,706.807 1437.22,696.023 1447.33,674.456C1457.44,652.888 1417,671.423 1417,671.423Z" style="fill:rgb(203,68,29);"/></g></g><path d="M1248.67,3086.39C1248.67,3086.39 1171.34,3116.01 1132.67,3115.19C1094,3114.37 1101.4,3301.95 1110.45,3322.52C1140.48,3177.14 1159.6,3160.73 1159.6,3160.73C1159.6,3160.73 1240.62,3172.42 1271.89,3136.22C1303.15,3100.02 1277.47,3078.17 1248.67,3086.39Z" style="fill:none;stroke:rgb(107,0,0);stroke-width:16.25px;"/></g><g transform="matrix(0.75078,0,0,1,7009.03,2290.29)"><path d="M1110.2,2904.44C1110.2,2904.44 1142.34,2914.72 1184.76,2882.59C1227.18,2850.45 1362.57,2706.35 1565.28,2705.18C1788.97,2703.89 1942.32,2865.49 1992.09,2886.44C2040.94,2907.01 2057.65,2874.87 2057.65,2909.58C2057.65,2937.06 1962.52,3212.97 1556.29,3215.54C1150.05,3218.11 1034.35,2901.87 1110.2,2904.44Z" style="fill:rgb(239,107,68);"/><clipPath id="_clip3"><path d="M1110.2,2904.44C1110.2,2904.44 1142.34,2914.72 1184.76,2882.59C1227.18,2850.45 1362.57,2706.35 1565.28,2705.18C1788.97,2703.89 1942.32,2865.49 1992.09,2886.44C2040.94,2907.01 2057.65,2874.87 2057.65,2909.58C2057.65,2937.06 1962.52,3212.97 1556.29,3215.54C1150.05,3218.11 1034.35,2901.87 1110.2,2904.44Z"/></clipPath><g clip-path="url(#_clip3)"><g transform="matrix(1,0,0,1,617.9,2407.85)"><path d="M479.157,464.062C479.157,464.062 551.559,621.371 662.136,675.344C772.713,729.316 901.72,765.517 1112.34,724.709C1322.97,683.9 1396.23,476.568 1454.61,448.924C1512.98,421.279 1468.88,535.806 1432.68,608.866C1396.48,681.926 1225.35,860.955 937.715,847.133C650.083,833.311 432.22,630.586 437.485,545.021C442.751,459.455 451.06,441.684 479.157,464.062Z" style="fill:rgb(203,68,29);"/></g></g><path d="M1110.2,2904.44C1110.2,2904.44 1142.34,2914.72 1184.76,2882.59C1227.18,2850.45 1362.57,2706.35 1565.28,2705.18C1788.97,2703.89 1942.32,2865.49 1992.09,2886.44C2040.94,2907.01 2057.65,2874.87 2057.65,2909.58C2057.65,2937.06 1962.52,3212.97 1556.29,3215.54C1150.05,3218.11 1034.35,2901.87 1110.2,2904.44Z" style="fill:none;stroke:rgb(107,0,0);stroke-width:15.31px;"/></g><g transform="matrix(0.880303,0,0,1.24058,6944.48,1533.85)"><path d="M1143.26,2904.12C1143.26,2904.12 1137.19,2843.47 1151.68,2833.02C1166.18,2822.57 1218.75,2852.23 1218.75,2852.23" style="fill:rgb(239,107,68);stroke:rgb(107,0,0);stroke-width:6.34px;"/></g><g transform="matrix(0.395327,1.04764,-0.8322,0.55712,10321.5,2256.47)"><path d="M1143.26,2904.12C1143.26,2904.12 1137.19,2843.47 1151.68,2833.02C1166.18,2822.57 1218.75,2852.23 1218.75,2852.23" style="fill:rgb(239,107,68);stroke:rgb(107,0,0);stroke-width:6.34px;"/></g><g transform="matrix(0.683564,0,0,0.963323,7103.38,2405.76)"><path d="M1143.26,2904.12C1143.26,2904.12 1137.19,2843.47 1151.68,2833.02C1166.18,2822.57 1218.75,2852.23 1218.75,2852.23" style="fill:rgb(239,107,68);stroke:rgb(107,0,0);stroke-width:8.17px;"/></g><g transform="matrix(0.207371,0.867565,-0.68916,0.292241,10203.7,3290.84)"><path d="M1143.26,2904.12C1143.26,2904.12 1137.19,2843.47 1151.68,2833.02C1166.18,2822.57 1218.75,2852.23 1218.75,2852.23" style="fill:rgb(239,107,68);stroke:rgb(107,0,0);stroke-width:8.17px;"/></g><g transform="matrix(0.716398,0.299155,-0.224599,0.954205,4578.78,-35.3929)"><g transform="matrix(1,0,0,1,4650.56,680.589)"><path d="M1308.7,3132.3C1308.7,3132.3 1261.97,3275.13 1399.54,3318.57C1410.07,3299.48 1412.7,3283.03 1412.7,3283.03C1412.7,3283.03 1297.52,3277.1 1336.35,3133.61C1323.05,3111.66 1308.7,3132.3 1308.7,3132.3Z" style="fill:rgb(239,107,68);stroke:rgb(107,0,0);stroke-width:7.65px;"/></g><g transform="matrix(1,0,0,1,4650.56,680.589)"><path d="M1657.77,3270.31C1657.77,3270.31 1606.43,3234.77 1516.92,3242.01C1427.4,3249.25 1410.95,3282.16 1410.95,3282.16L1399.1,3317.7C1399.1,3317.7 1397.12,3409.19 1493.88,3438.81C1590.63,3468.43 1701.21,3411.82 1708.45,3351.27C1608.41,3352.58 1536.66,3336.79 1536.66,3336.79L1657.77,3270.31Z" style="fill:rgb(239,107,68);"/><clipPath id="_clip4"><path d="M1657.77,3270.31C1657.77,3270.31 1606.43,3234.77 1516.92,3242.01C1427.4,3249.25 1410.95,3282.16 1410.95,3282.16L1399.1,3317.7C1399.1,3317.7 1397.12,3409.19 1493.88,3438.81C1590.63,3468.43 1701.21,3411.82 1708.45,3351.27C1608.41,3352.58 1536.66,3336.79 1536.66,3336.79L1657.77,3270.31Z"/></clipPath><g clip-path="url(#_clip4)"><g transform="matrix(1,0,0,1,617.9,2407.85)"><path d="M767.134,917.973C767.134,917.973 850.231,1013.41 972.821,990.375C1095.41,967.338 1115.98,943.478 1115.98,943.478C1115.98,943.478 1076.49,1048.79 992.567,1061.13C908.646,1073.47 787.703,1026.58 761.375,968.983C735.047,911.391 767.134,917.973 767.134,917.973Z" style="fill:rgb(203,68,29);"/></g></g><path d="M1657.77,3270.31C1657.77,3270.31 1606.43,3234.77 1516.92,3242.01C1427.4,3249.25 1410.95,3282.16 1410.95,3282.16L1399.1,3317.7C1399.1,3317.7 1397.12,3409.19 1493.88,3438.81C1590.63,3468.43 1701.21,3411.82 1708.45,3351.27C1608.41,3352.58 1536.66,3336.79 1536.66,3336.79L1657.77,3270.31Z" style="fill:none;stroke:rgb(107,0,0);stroke-width:11.48px;"/></g><g transform="matrix(0.613586,0.403952,-0.314435,0.477614,5770.21,3032.8)"><path d="M1142.48,969.144C1142.48,969.144 1159.76,933.76 1207.36,912.276" style="fill:none;stroke:rgb(254,184,163);stroke-width:34.88px;"/></g></g><g transform="matrix(1.02891,0.320967,-0.246191,1.40012,7572.55,635.124)"><path d="M1143.26,2904.12C1143.26,2904.12 1137.19,2843.47 1151.68,2833.02C1166.18,2822.57 1218.75,2852.23 1218.75,2852.23" style="fill:rgb(239,107,68);stroke:rgb(107,0,0);stroke-width:5.38px;"/></g><g transform="matrix(0.884985,0.769226,-0.590019,1.20427,8837.98,642.331)"><path d="M1143.26,2904.12C1143.26,2904.12 1137.19,2843.47 1151.68,2833.02C1166.18,2822.57 1218.75,2852.23 1218.75,2852.23" style="fill:rgb(239,107,68);stroke:rgb(107,0,0);stroke-width:5.38px;"/></g><g transform="matrix(0.662875,1.09619,-0.84081,0.902025,9931.45,1148.33)"><path d="M1143.26,2904.12C1143.26,2904.12 1137.19,2843.47 1151.68,2833.02C1166.18,2822.57 1218.75,2852.23 1218.75,2852.23" style="fill:rgb(239,107,68);stroke:rgb(107,0,0);stroke-width:5.38px;"/></g><g transform="matrix(0.75078,0,0,1,7811.76,4431.54)"><ellipse cx="702.804" cy="671.319" rx="13.427" ry="14.48" style="fill:rgb(254,184,163);"/></g><g transform="matrix(0.271426,0.639504,-0.373729,0.281411,8326.87,4053.39)"><path d="M1142.48,969.144C1142.48,969.144 1159.76,933.76 1207.36,912.276" style="fill:none;stroke:rgb(254,184,163);stroke-width:34.88px;"/></g><g transform="matrix(0.63461,-0.0542865,0.0407572,0.845268,6921.63,2729.51)"><path d="M1248.67,3086.39C1248.67,3086.39 1171.34,3116.01 1132.67,3115.19C1094,3114.37 1101.4,3301.95 1110.45,3322.52C1140.48,3177.14 1148.96,3159.97 1148.96,3159.97C1148.96,3159.97 1245.46,3164.78 1277.5,3133.35C1307.81,3103.61 1277.47,3078.17 1248.67,3086.39Z" style="fill:rgb(239,107,68);"/><clipPath id="_clip5"><path d="M1248.67,3086.39C1248.67,3086.39 1171.34,3116.01 1132.67,3115.19C1094,3114.37 1101.4,3301.95 1110.45,3322.52C1140.48,3177.14 1148.96,3159.97 1148.96,3159.97C1148.96,3159.97 1245.46,3164.78 1277.5,3133.35C1307.81,3103.61 1277.47,3078.17 1248.67,3086.39Z"/></clipPath><g clip-path="url(#_clip5)"><g transform="matrix(-0.76966,0.0648653,0.0914149,1.08469,2160.86,2278.49)"><path d="M1417,671.423C1417,671.423 1420.04,699.73 1405.55,720.961C1432.17,706.807 1437.22,696.023 1447.33,674.456C1457.44,652.888 1417,671.423 1417,671.423Z" style="fill:rgb(203,68,29);"/></g></g><path d="M1248.67,3086.39C1248.67,3086.39 1171.34,3116.01 1132.67,3115.19C1094,3114.37 1101.4,3301.95 1110.45,3322.52C1140.48,3177.14 1148.96,3159.97 1148.96,3159.97C1148.96,3159.97 1245.46,3164.78 1277.5,3133.35C1307.81,3103.61 1277.47,3078.17 1248.67,3086.39Z" style="fill:none;stroke:rgb(107,0,0);stroke-width:13.56px;"/></g><g transform="matrix(0.674186,-0.20457,0.153587,0.897981,6560.48,2801.74)"><path d="M1248.67,3086.39C1248.67,3086.39 1171.34,3116.01 1132.67,3115.19C1094,3114.37 1101.4,3301.95 1110.45,3322.52C1140.48,3177.14 1148.96,3159.97 1148.96,3159.97C1148.96,3159.97 1245.46,3164.78 1277.5,3133.35C1307.81,3103.61 1277.47,3078.17 1248.67,3086.39Z" style="fill:rgb(239,107,68);"/><clipPath id="_clip6"><path d="M1248.67,3086.39C1248.67,3086.39 1171.34,3116.01 1132.67,3115.19C1094,3114.37 1101.4,3301.95 1110.45,3322.52C1140.48,3177.14 1148.96,3159.97 1148.96,3159.97C1148.96,3159.97 1245.46,3164.78 1277.5,3133.35C1307.81,3103.61 1277.47,3078.17 1248.67,3086.39Z"/></clipPath><g clip-path="url(#_clip6)"><g transform="matrix(-0.76966,0.0648653,0.0914149,1.08469,2160.86,2278.49)"><path d="M1417,671.423C1417,671.423 1420.04,699.73 1405.55,720.961C1432.17,706.807 1437.22,696.023 1447.33,674.456C1457.44,652.888 1417,671.423 1417,671.423Z" style="fill:rgb(203,68,29);"/></g></g><path d="M1248.67,3086.39C1248.67,3086.39 1171.34,3116.01 1132.67,3115.19C1094,3114.37 1101.4,3301.95 1110.45,3322.52C1140.48,3177.14 1148.96,3159.97 1148.96,3159.97C1148.96,3159.97 1245.46,3164.78 1277.5,3133.35C1307.81,3103.61 1277.47,3078.17 1248.67,3086.39Z" style="fill:none;stroke:rgb(107,0,0);stroke-width:12.47px;"/></g><g transform="matrix(-0.635057,-0.044057,-0.0330771,0.845863,9435.25,2692.1)"><path d="M1248.67,3086.39C1248.67,3086.39 1171.34,3116.01 1132.67,3115.19C1094,3114.37 1101.4,3301.95 1110.45,3322.52C1140.48,3177.14 1148.96,3159.97 1148.96,3159.97C1148.96,3159.97 1245.46,3164.78 1277.5,3133.35C1307.81,3103.61 1277.47,3078.17 1248.67,3086.39Z" style="fill:rgb(239,107,68);"/><clipPath id="_clip7"><path d="M1248.67,3086.39C1248.67,3086.39 1171.34,3116.01 1132.67,3115.19C1094,3114.37 1101.4,3301.95 1110.45,3322.52C1140.48,3177.14 1148.96,3159.97 1148.96,3159.97C1148.96,3159.97 1245.46,3164.78 1277.5,3133.35C1307.81,3103.61 1277.47,3078.17 1248.67,3086.39Z"/></clipPath><g clip-path="url(#_clip7)"><g transform="matrix(-0.76966,0.0648653,0.0914149,1.08469,2160.86,2278.49)"><path d="M1417,671.423C1417,671.423 1420.04,699.73 1405.55,720.961C1432.17,706.807 1437.22,696.023 1447.33,674.456C1457.44,652.888 1417,671.423 1417,671.423Z" style="fill:rgb(203,68,29);"/></g></g><path d="M1248.67,3086.39C1248.67,3086.39 1171.34,3116.01 1132.67,3115.19C1094,3114.37 1101.4,3301.95 1110.45,3322.52C1140.48,3177.14 1148.96,3159.97 1148.96,3159.97C1148.96,3159.97 1245.46,3164.78 1277.5,3133.35C1307.81,3103.61 1277.47,3078.17 1248.67,3086.39Z" style="fill:none;stroke:rgb(107,0,0);stroke-width:13.56px;"/></g><g transform="matrix(-0.675995,-0.193692,-0.14542,0.90039,9797.03,2758.5)"><path d="M1248.67,3086.39C1248.67,3086.39 1171.34,3116.01 1132.67,3115.19C1094,3114.37 1101.4,3301.95 1110.45,3322.52C1140.48,3177.14 1148.96,3159.97 1148.96,3159.97C1148.96,3159.97 1245.46,3164.78 1277.5,3133.35C1307.81,3103.61 1277.47,3078.17 1248.67,3086.39Z" style="fill:rgb(239,107,68);"/><clipPath id="_clip8"><path d="M1248.67,3086.39C1248.67,3086.39 1171.34,3116.01 1132.67,3115.19C1094,3114.37 1101.4,3301.95 1110.45,3322.52C1140.48,3177.14 1148.96,3159.97 1148.96,3159.97C1148.96,3159.97 1245.46,3164.78 1277.5,3133.35C1307.81,3103.61 1277.47,3078.17 1248.67,3086.39Z"/></clipPath><g clip-path="url(#_clip8)"><g transform="matrix(-0.76966,0.0648653,0.0914149,1.08469,2160.86,2278.49)"><path d="M1417,671.423C1417,671.423 1420.04,699.73 1405.55,720.961C1432.17,706.807 1437.22,696.023 1447.33,674.456C1457.44,652.888 1417,671.423 1417,671.423Z" style="fill:rgb(203,68,29);"/></g></g><path d="M1248.67,3086.39C1248.67,3086.39 1171.34,3116.01 1132.67,3115.19C1094,3114.37 1101.4,3301.95 1110.45,3322.52C1140.48,3177.14 1148.96,3159.97 1148.96,3159.97C1148.96,3159.97 1245.46,3164.78 1277.5,3133.35C1307.81,3103.61 1277.47,3078.17 1248.67,3086.39Z" style="fill:none;stroke:rgb(107,0,0);stroke-width:12.47px;"/></g><g transform="matrix(0.75078,0,0,1,5287.68,3722.02)"><g transform="matrix(6.35424,0,0,2.72218,-728.635,-179.917)"><ellipse cx="702.804" cy="671.319" rx="13.427" ry="14.48" style="fill:rgb(188,46,62);"/></g><g transform="matrix(6.26908,-1.03683,0.444183,2.6857,-838.913,526.536)"><ellipse cx="702.804" cy="671.319" rx="13.427" ry="14.48" style="fill:rgb(188,46,62);"/></g><g transform="matrix(6.34675,0.30846,-0.132145,2.71897,-372.7,-421.059)"><ellipse cx="702.804" cy="671.319" rx="13.427" ry="14.48" style="fill:rgb(188,46,62);"/></g><g transform="matrix(1,0,0,1,2278.5,-1452.08)"><circle cx="1441.47" cy="3014.57" r="92.148" style="fill:white;stroke:rgb(107,0,0);stroke-width:11.48px;"/></g><g transform="matrix(1,0,0,1,2581.27,-1473.47)"><circle cx="1441.47" cy="3014.57" r="92.148" style="fill:white;stroke:rgb(107,0,0);stroke-width:11.48px;"/></g><g transform="matrix(1,0,0,1,1624.92,1042.14)"><path d="M2215.39,619.806L2282.26,608.222" style="fill:none;stroke:rgb(107,0,0);stroke-width:11.48px;"/></g><g transform="matrix(0.382882,0,0,0.381562,3215.01,400.814)"><circle cx="1421.8" cy="3047.33" r="39.229" style="fill:rgb(107,0,0);"/></g><g transform="matrix(0.382882,0,0,0.381562,3430.69,386.21)"><circle cx="1421.8" cy="3047.33" r="39.229" style="fill:rgb(107,0,0);"/></g><g transform="matrix(0.512084,0.858935,-0.858935,0.512084,3628.77,756.081)"><ellipse cx="611.328" cy="302.848" rx="8.162" ry="16.06" style="fill:rgb(107,0,0);"/></g><g transform="matrix(0.117639,-0.993056,0.993056,0.117639,3649.15,1976.67)"><ellipse cx="611.328" cy="302.848" rx="8.162" ry="16.06" style="fill:rgb(107,0,0);"/></g></g><g transform="matrix(-0.0801329,0.994288,-0.746491,-0.106733,11852.6,-565.606)"><g transform="matrix(-0.683102,0.730323,0.730323,0.683102,5080.14,694.699)"><path d="M1435.82,3173.83C1435.82,3173.83 1290.1,3227.89 1399.54,3318.57C1410.07,3299.48 1412.7,3283.03 1412.7,3283.03C1412.7,3283.03 1340.11,3249.88 1445.35,3204.78C1467.53,3183.09 1435.82,3173.83 1435.82,3173.83Z" style="fill:rgb(239,107,68);stroke:rgb(107,0,0);stroke-width:7.65px;"/></g><g transform="matrix(-0.683102,0.730323,0.730323,0.683102,5080.14,694.699)"><path d="M1657.77,3270.31C1657.77,3270.31 1606.43,3234.77 1516.92,3242.01C1427.4,3249.25 1410.95,3282.16 1410.95,3282.16L1399.1,3317.7C1399.1,3317.7 1397.12,3409.19 1493.88,3438.81C1590.63,3468.43 1701.21,3411.82 1708.45,3351.27C1608.41,3352.58 1536.66,3336.79 1536.66,3336.79L1657.77,3270.31Z" style="fill:rgb(239,107,68);"/><clipPath id="_clip9"><path d="M1657.77,3270.31C1657.77,3270.31 1606.43,3234.77 1516.92,3242.01C1427.4,3249.25 1410.95,3282.16 1410.95,3282.16L1399.1,3317.7C1399.1,3317.7 1397.12,3409.19 1493.88,3438.81C1590.63,3468.43 1701.21,3411.82 1708.45,3351.27C1608.41,3352.58 1536.66,3336.79 1536.66,3336.79L1657.77,3270.31Z"/></clipPath><g clip-path="url(#_clip9)"><g transform="matrix(-1.00027,0.0629674,0.0553589,0.879408,2454.91,2479.73)"><path d="M767.134,917.973C767.134,917.973 850.231,1013.41 972.821,990.375C1095.41,967.338 1115.98,943.478 1115.98,943.478C1115.98,943.478 1076.49,1048.79 992.567,1061.13C908.646,1073.47 787.703,1026.58 761.375,968.983C735.047,911.391 767.134,917.973 767.134,917.973Z" style="fill:rgb(203,68,29);"/></g></g><path d="M1657.77,3270.31C1657.77,3270.31 1606.43,3234.77 1516.92,3242.01C1427.4,3249.25 1410.95,3282.16 1410.95,3282.16L1399.1,3317.7C1399.1,3317.7 1397.12,3409.19 1493.88,3438.81C1590.63,3468.43 1701.21,3411.82 1708.45,3351.27C1608.41,3352.58 1536.66,3336.79 1536.66,3336.79L1657.77,3270.31Z" style="fill:none;stroke:rgb(107,0,0);stroke-width:11.48px;"/></g><g transform="matrix(1.18019,0,0,0.998727,5068.69,3090.01)"><path d="M1142.48,969.144C1142.48,969.144 1159.76,933.76 1207.36,912.276" style="fill:none;stroke:rgb(254,184,163);stroke-width:21.01px;"/></g></g></g></g></g></svg>