<?xml version="1.0" encoding="UTF-8" standalone="no"?><!DOCTYPE svg PUBLIC "-//W3C//DTD SVG 1.1//EN" "http://www.w3.org/Graphics/SVG/1.1/DTD/svg11.dtd"><svg width="100%" height="100%" viewBox="0 0 681 681" version="1.1" xmlns="http://www.w3.org/2000/svg" xmlns:xlink="http://www.w3.org/1999/xlink" xml:space="preserve" xmlns:serif="http://www.serif.com/" style="fill-rule:evenodd;clip-rule:evenodd;stroke-linecap:round;stroke-linejoin:round;stroke-miterlimit:1.5;"><g transform="matrix(0.48,0,0,0.48,-2326.85,0)"><g id="_4" serif:id="4" transform="matrix(0.142687,0,0,0.20202,4847.61,0)"><rect x="0" y="0" width="9933.07" height="7015.75" style="fill:none;"/><g transform="matrix(8.18652,0,0,5.78216,8752.49,2826.41)"><g transform="matrix(0.352174,0.387335,-0.387335,0.352174,-143.334,-1378.27)"><path d="M1248.67,3086.39C1248.67,3086.39 1171.34,3116.01 1132.67,3115.19C1094,3114.37 1101.4,3301.95 1110.45,3322.52C1140.48,3177.14 1159.6,3160.73 1159.6,3160.73C1159.6,3160.73 1240.62,3172.42 1271.89,3136.22C1303.15,3100.02 1277.47,3078.17 1248.67,3086.39Z" style="fill:rgb(203,68,29);"/><clipPath id="_clip1"><path d="M1248.67,3086.39C1248.67,3086.39 1171.34,3116.01 1132.67,3115.19C1094,3114.37 1101.4,3301.95 1110.45,3322.52C1140.48,3177.14 1159.6,3160.73 1159.6,3160.73C1159.6,3160.73 1240.62,3172.42 1271.89,3136.22C1303.15,3100.02 1277.47,3078.17 1248.67,3086.39Z"/></clipPath><g clip-path="url(#_clip1)"><g transform="matrix(-1.12778,0.0453497,0.0597743,1.4865,2692.11,2023.4)"><path d="M1417,671.423C1417,671.423 1420.04,699.73 1405.55,720.961C1432.17,706.807 1437.22,696.023 1447.33,674.456C1457.44,652.888 1417,671.423 1417,671.423Z" style="fill:rgb(203,68,29);"/></g></g><path d="M1248.67,3086.39C1248.67,3086.39 1171.34,3116.01 1132.67,3115.19C1094,3114.37 1101.4,3301.95 1110.45,3322.52C1140.48,3177.14 1159.6,3160.73 1159.6,3160.73C1159.6,3160.73 1240.62,3172.42 1271.89,3136.22C1303.15,3100.02 1277.47,3078.17 1248.67,3086.39Z" style="fill:none;stroke:rgb(107,0,0);stroke-width:23.88px;"/></g><g transform="matrix(-0.352174,0.387335,0.387335,0.352174,-775.738,-1382.77)"><path d="M1248.67,3086.39C1248.67,3086.39 1171.34,3116.01 1132.67,3115.19C1094,3114.37 1101.4,3301.95 1110.45,3322.52C1140.48,3177.14 1159.6,3160.73 1159.6,3160.73C1159.6,3160.73 1240.62,3172.42 1271.89,3136.22C1303.15,3100.02 1277.47,3078.17 1248.67,3086.39Z" style="fill:rgb(203,68,29);"/><clipPath id="_clip2"><path d="M1248.67,3086.39C1248.67,3086.39 1171.34,3116.01 1132.67,3115.19C1094,3114.37 1101.4,3301.95 1110.45,3322.52C1140.48,3177.14 1159.6,3160.73 1159.6,3160.73C1159.6,3160.73 1240.62,3172.42 1271.89,3136.22C1303.15,3100.02 1277.47,3078.17 1248.67,3086.39Z"/></clipPath><g clip-path="url(#_clip2)"><g transform="matrix(-1.12778,0.0453497,0.0597743,1.4865,2692.11,2023.4)"><path d="M1417,671.423C1417,671.423 1420.04,699.73 1405.55,720.961C1432.17,706.807 1437.22,696.023 1447.33,674.456C1457.44,652.888 1417,671.423 1417,671.423Z" style="fill:rgb(203,68,29);"/></g></g><path d="M1248.67,3086.39C1248.67,3086.39 1171.34,3116.01 1132.67,3115.19C1094,3114.37 1101.4,3301.95 1110.45,3322.52C1140.48,3177.14 1159.6,3160.73 1159.6,3160.73C1159.6,3160.73 1240.62,3172.42 1271.89,3136.22C1303.15,3100.02 1277.47,3078.17 1248.67,3086.39Z" style="fill:none;stroke:rgb(107,0,0);stroke-width:23.88px;"/></g><g transform="matrix(1,0,0,1,-2032.03,-2781.8)"><path d="M1110.2,2904.44C1110.2,2904.44 1142.34,2914.72 1184.76,2882.59C1227.18,2850.45 1362.57,2706.35 1565.28,2705.18C1788.97,2703.89 1942.32,2865.49 1992.09,2886.44C2040.94,2907.01 2057.65,2874.87 2057.65,2909.58C2057.65,2937.06 1962.52,3212.97 1556.29,3215.54C1150.05,3218.11 1034.35,2901.87 1110.2,2904.44Z" style="fill:rgb(239,107,68);"/><clipPath id="_clip3"><path d="M1110.2,2904.44C1110.2,2904.44 1142.34,2914.72 1184.76,2882.59C1227.18,2850.45 1362.57,2706.35 1565.28,2705.18C1788.97,2703.89 1942.32,2865.49 1992.09,2886.44C2040.94,2907.01 2057.65,2874.87 2057.65,2909.58C2057.65,2937.06 1962.52,3212.97 1556.29,3215.54C1150.05,3218.11 1034.35,2901.87 1110.2,2904.44Z"/></clipPath><g clip-path="url(#_clip3)"><g transform="matrix(1,0,0,1,617.9,2407.85)"><path d="M479.157,464.062C479.157,464.062 551.559,621.371 662.136,675.344C772.713,729.316 901.72,765.517 1112.34,724.709C1322.97,683.9 1396.23,476.568 1454.61,448.924C1512.98,421.279 1468.88,535.806 1432.68,608.866C1396.48,681.926 1225.35,860.955 937.715,847.133C650.083,833.311 432.22,630.586 437.485,545.021C442.751,459.455 451.06,441.684 479.157,464.062Z" style="fill:rgb(203,68,29);"/></g></g><path d="M1110.2,2904.44C1110.2,2904.44 1142.34,2914.72 1184.76,2882.59C1227.18,2850.45 1362.57,2706.35 1565.28,2705.18C1788.97,2703.89 1942.32,2865.49 1992.09,2886.44C2040.94,2907.01 2057.65,2874.87 2057.65,2909.58C2057.65,2937.06 1962.52,3212.97 1556.29,3215.54C1150.05,3218.11 1034.35,2901.87 1110.2,2904.44Z" style="fill:none;stroke:rgb(107,0,0);stroke-width:16.67px;"/></g><g transform="matrix(1,0,0,1,-5074.81,-1312.83)"><g transform="matrix(1,0,0,1,3029.81,-1497.19)"><circle cx="1441.47" cy="3014.57" r="92.148" style="fill:white;"/><clipPath id="_clip4"><circle cx="1441.47" cy="3014.57" r="92.148"/></clipPath><g clip-path="url(#_clip4)"><g transform="matrix(0.3972,0,0,0.882678,889.642,342.805)"><circle cx="1421.8" cy="3047.33" r="39.229" style="fill:rgb(107,0,0);"/></g><g transform="matrix(1,0,0,1,-400.997,1512.41)"><path d="M1710.05,1490.42L1951.39,1539.79C1951.39,1539.79 1981.01,1420.22 1865.82,1393.89C1750.64,1367.56 1710.05,1490.42 1710.05,1490.42Z" style="fill:rgb(239,107,68);stroke:rgb(107,0,0);stroke-width:7.13px;"/></g><g transform="matrix(-0.990373,0.138427,-0.138427,-0.990373,3458.13,4308.02)"><path d="M1710.05,1490.42L1951.39,1539.79C1951.39,1539.79 1981.01,1420.22 1865.82,1393.89C1750.64,1367.56 1710.05,1490.42 1710.05,1490.42Z" style="fill:rgb(239,107,68);stroke:rgb(107,0,0);stroke-width:7.13px;"/></g></g><circle cx="1441.47" cy="3014.57" r="92.148" style="fill:none;stroke:rgb(107,0,0);stroke-width:12.5px;"/></g><g transform="matrix(-1,0,0,1,6212.9,-1511.11)"><circle cx="1441.47" cy="3014.57" r="92.148" style="fill:white;"/><clipPath id="_clip5"><circle cx="1441.47" cy="3014.57" r="92.148"/></clipPath><g clip-path="url(#_clip5)"><g transform="matrix(0.3972,0,0,0.882678,889.642,342.805)"><circle cx="1421.8" cy="3047.33" r="39.229" style="fill:rgb(107,0,0);"/></g><g transform="matrix(1,0,0,1,-400.997,1512.41)"><path d="M1710.05,1490.42L1951.39,1539.79C1951.39,1539.79 1981.01,1420.22 1865.82,1393.89C1750.64,1367.56 1710.05,1490.42 1710.05,1490.42Z" style="fill:rgb(239,107,68);stroke:rgb(107,0,0);stroke-width:7.13px;"/></g><g transform="matrix(-0.997412,0.0718964,-0.0718964,-0.997412,3341.97,4435.33)"><path d="M1710.05,1490.42L1951.39,1539.79C1951.39,1539.79 1981.01,1420.22 1865.82,1393.89C1750.64,1367.56 1710.05,1490.42 1710.05,1490.42Z" style="fill:rgb(239,107,68);stroke:rgb(107,0,0);stroke-width:7.13px;"/></g></g><circle cx="1441.47" cy="3014.57" r="92.148" style="fill:none;stroke:rgb(107,0,0);stroke-width:12.5px;"/></g><g transform="matrix(0.063019,0.998012,-0.998012,0.063019,4721.55,756.059)"><ellipse cx="611.328" cy="302.848" rx="8.162" ry="16.06" style="fill:rgb(107,0,0);"/></g><g transform="matrix(0.063019,0.998012,-0.998012,0.063019,5019.45,748.42)"><ellipse cx="611.328" cy="302.848" rx="8.162" ry="16.06" style="fill:rgb(107,0,0);"/></g><g transform="matrix(1,0,0,1,3644.2,913.952)"><ellipse cx="702.804" cy="671.319" rx="13.427" ry="14.48" style="fill:rgb(254,184,163);"/></g><g transform="matrix(1,0,0,1,4180.23,881.832)"><ellipse cx="702.804" cy="671.319" rx="13.427" ry="14.48" style="fill:rgb(254,184,163);"/></g><g transform="matrix(1,0,0,1,2380.52,994.771)"><path d="M2215.39,619.806L2282.26,608.222" style="fill:none;stroke:rgb(107,0,0);stroke-width:12.5px;"/></g></g><g transform="matrix(0.670916,-0.741533,-0.741533,-0.670916,-3024.38,3698.81)"><g transform="matrix(1,0,0,1,2724.5,-2330.18)"><path d="M1308.7,3132.3C1308.7,3132.3 1261.97,3275.13 1399.54,3318.57C1410.07,3299.48 1412.7,3283.03 1412.7,3283.03C1412.7,3283.03 1297.52,3277.1 1336.35,3133.61C1323.05,3111.66 1308.7,3132.3 1308.7,3132.3Z" style="fill:rgb(239,107,68);stroke:rgb(107,0,0);stroke-width:8.33px;"/></g><g transform="matrix(1,0,0,1,2724.5,-2330.18)"><path d="M1657.77,3270.31C1657.77,3270.31 1606.43,3234.77 1516.92,3242.01C1427.4,3249.25 1410.95,3282.16 1410.95,3282.16L1399.1,3317.7C1399.1,3317.7 1397.12,3409.19 1493.88,3438.81C1590.63,3468.43 1701.21,3411.82 1708.45,3351.27C1608.41,3352.58 1536.66,3336.79 1536.66,3336.79L1657.77,3270.31Z" style="fill:rgb(239,107,68);"/><clipPath id="_clip6"><path d="M1657.77,3270.31C1657.77,3270.31 1606.43,3234.77 1516.92,3242.01C1427.4,3249.25 1410.95,3282.16 1410.95,3282.16L1399.1,3317.7C1399.1,3317.7 1397.12,3409.19 1493.88,3438.81C1590.63,3468.43 1701.21,3411.82 1708.45,3351.27C1608.41,3352.58 1536.66,3336.79 1536.66,3336.79L1657.77,3270.31Z"/></clipPath><g clip-path="url(#_clip6)"><g transform="matrix(-0.996672,0.0815126,-0.0815126,-0.996672,2529.02,4189.8)"><path d="M767.134,917.973C767.134,917.973 850.231,1013.41 972.821,990.375C1095.41,967.338 1115.98,943.478 1115.98,943.478C1115.98,943.478 1076.49,1048.79 992.567,1061.13C908.646,1073.47 787.703,1026.58 761.375,968.983C735.047,911.391 767.134,917.973 767.134,917.973Z" style="fill:rgb(203,68,29);"/></g></g><path d="M1657.77,3270.31C1657.77,3270.31 1606.43,3234.77 1516.92,3242.01C1427.4,3249.25 1410.95,3282.16 1410.95,3282.16L1399.1,3317.7C1399.1,3317.7 1397.12,3409.19 1493.88,3438.81C1590.63,3468.43 1701.21,3411.82 1708.45,3351.27C1608.41,3352.58 1536.66,3336.79 1536.66,3336.79L1657.77,3270.31Z" style="fill:none;stroke:rgb(107,0,0);stroke-width:12.5px;"/></g><g transform="matrix(-0.663799,-0.3147,0.244961,-0.516699,4868.75,1935.3)"><path d="M1142.48,969.144C1142.48,969.144 1159.76,933.76 1207.36,912.276" style="fill:none;stroke:rgb(254,184,163);stroke-width:37.98px;"/></g></g><g transform="matrix(1.33195,0,0,1,-6747.82,-5416.69)"><g transform="matrix(0.880303,0,0,1.24058,3475.63,1879.39)"><path d="M1143.26,2904.12C1143.26,2904.12 1137.19,2843.47 1151.68,2833.02C1166.18,2822.57 1218.75,2852.23 1218.75,2852.23" style="fill:rgb(239,107,68);stroke:rgb(107,0,0);stroke-width:6.9px;"/></g><g transform="matrix(0.395327,1.04764,-0.8322,0.55712,6852.69,2602.02)"><path d="M1143.26,2904.12C1143.26,2904.12 1137.19,2843.47 1151.68,2833.02C1166.18,2822.57 1218.75,2852.23 1218.75,2852.23" style="fill:rgb(239,107,68);stroke:rgb(107,0,0);stroke-width:6.9px;"/></g><g transform="matrix(0.683564,0,0,0.963323,3634.52,2751.3)"><path d="M1143.26,2904.12C1143.26,2904.12 1137.19,2843.47 1151.68,2833.02C1166.18,2822.57 1218.75,2852.23 1218.75,2852.23" style="fill:rgb(239,107,68);stroke:rgb(107,0,0);stroke-width:8.89px;"/></g><g transform="matrix(0.207371,0.867565,-0.68916,0.292241,6734.84,3636.38)"><path d="M1143.26,2904.12C1143.26,2904.12 1137.19,2843.47 1151.68,2833.02C1166.18,2822.57 1218.75,2852.23 1218.75,2852.23" style="fill:rgb(239,107,68);stroke:rgb(107,0,0);stroke-width:8.89px;"/></g><g transform="matrix(1.02891,0.320967,-0.246191,1.40012,4103.69,980.667)"><path d="M1143.26,2904.12C1143.26,2904.12 1137.19,2843.47 1151.68,2833.02C1166.18,2822.57 1218.75,2852.23 1218.75,2852.23" style="fill:rgb(239,107,68);stroke:rgb(107,0,0);stroke-width:5.86px;"/></g><g transform="matrix(0.884985,0.769226,-0.590019,1.20427,5369.13,987.874)"><path d="M1143.26,2904.12C1143.26,2904.12 1137.19,2843.47 1151.68,2833.02C1166.18,2822.57 1218.75,2852.23 1218.75,2852.23" style="fill:rgb(239,107,68);stroke:rgb(107,0,0);stroke-width:5.86px;"/></g><g transform="matrix(0.662875,1.09619,-0.84081,0.902025,6462.6,1493.88)"><path d="M1143.26,2904.12C1143.26,2904.12 1137.19,2843.47 1151.68,2833.02C1166.18,2822.57 1218.75,2852.23 1218.75,2852.23" style="fill:rgb(239,107,68);stroke:rgb(107,0,0);stroke-width:5.86px;"/></g></g><g transform="matrix(-0.99849,0.0549304,0.0549304,0.99849,961.762,-2862.39)"><path d="M1248.67,3086.39C1248.67,3086.39 1171.34,3116.01 1132.67,3115.19C1094,3114.37 1101.4,3301.95 1110.45,3322.52C1140.48,3177.14 1158.16,3170.65 1158.16,3170.65C1158.16,3170.65 1252.79,3179.36 1284.05,3143.16C1315.32,3106.96 1277.47,3078.17 1248.67,3086.39Z" style="fill:rgb(239,107,68);"/><clipPath id="_clip7"><path d="M1248.67,3086.39C1248.67,3086.39 1171.34,3116.01 1132.67,3115.19C1094,3114.37 1101.4,3301.95 1110.45,3322.52C1140.48,3177.14 1158.16,3170.65 1158.16,3170.65C1158.16,3170.65 1252.79,3179.36 1284.05,3143.16C1315.32,3106.96 1277.47,3078.17 1248.67,3086.39Z"/></clipPath><g clip-path="url(#_clip7)"><g transform="matrix(-0.90364,0.0761568,0.10038,1.19107,2349.03,2191.49)"><path d="M1417,671.423C1417,671.423 1420.04,699.73 1405.55,720.961C1432.17,706.807 1437.22,696.023 1447.33,674.456C1457.44,652.888 1417,671.423 1417,671.423Z" style="fill:rgb(203,68,29);"/></g></g><path d="M1248.67,3086.39C1248.67,3086.39 1171.34,3116.01 1132.67,3115.19C1094,3114.37 1101.4,3301.95 1110.45,3322.52C1140.48,3177.14 1158.16,3170.65 1158.16,3170.65C1158.16,3170.65 1252.79,3179.36 1284.05,3143.16C1315.32,3106.96 1277.47,3078.17 1248.67,3086.39Z" style="fill:none;stroke:rgb(107,0,0);stroke-width:12.5px;"/></g><g transform="matrix(0.999765,-0.0216934,0.0216934,0.999765,-2134.21,-2785.32)"><path d="M1248.67,3086.39C1248.67,3086.39 1171.34,3116.01 1132.67,3115.19C1094,3114.37 1101.4,3301.95 1110.45,3322.52C1140.48,3177.14 1158.16,3170.65 1158.16,3170.65C1158.16,3170.65 1252.79,3179.36 1284.05,3143.16C1315.32,3106.96 1277.47,3078.17 1248.67,3086.39Z" style="fill:rgb(239,107,68);"/><clipPath id="_clip8"><path d="M1248.67,3086.39C1248.67,3086.39 1171.34,3116.01 1132.67,3115.19C1094,3114.37 1101.4,3301.95 1110.45,3322.52C1140.48,3177.14 1158.16,3170.65 1158.16,3170.65C1158.16,3170.65 1252.79,3179.36 1284.05,3143.16C1315.32,3106.96 1277.47,3078.17 1248.67,3086.39Z"/></clipPath><g clip-path="url(#_clip8)"><g transform="matrix(-0.90364,0.0761568,0.10038,1.19107,2349.03,2191.49)"><path d="M1417,671.423C1417,671.423 1420.04,699.73 1405.55,720.961C1432.17,706.807 1437.22,696.023 1447.33,674.456C1457.44,652.888 1417,671.423 1417,671.423Z" style="fill:rgb(203,68,29);"/></g></g><path d="M1248.67,3086.39C1248.67,3086.39 1171.34,3116.01 1132.67,3115.19C1094,3114.37 1101.4,3301.95 1110.45,3322.52C1140.48,3177.14 1158.16,3170.65 1158.16,3170.65C1158.16,3170.65 1252.79,3179.36 1284.05,3143.16C1315.32,3106.96 1277.47,3078.17 1248.67,3086.39Z" style="fill:none;stroke:rgb(107,0,0);stroke-width:12.5px;"/></g><g transform="matrix(-0.749542,0.289332,0.289332,0.749542,-17.5871,-2442.52)"><path d="M1248.67,3086.39C1248.67,3086.39 1171.34,3116.01 1132.67,3115.19C1094,3114.37 1101.4,3301.95 1110.45,3322.52C1140.48,3177.14 1158.16,3170.65 1158.16,3170.65C1158.16,3170.65 1252.79,3179.36 1284.05,3143.16C1315.32,3106.96 1277.47,3078.17 1248.67,3086.39Z" style="fill:rgb(239,107,68);"/><clipPath id="_clip9"><path d="M1248.67,3086.39C1248.67,3086.39 1171.34,3116.01 1132.67,3115.19C1094,3114.37 1101.4,3301.95 1110.45,3322.52C1140.48,3177.14 1158.16,3170.65 1158.16,3170.65C1158.16,3170.65 1252.79,3179.36 1284.05,3143.16C1315.32,3106.96 1277.47,3078.17 1248.67,3086.39Z"/></clipPath><g clip-path="url(#_clip9)"><g transform="matrix(-1.12778,0.0453497,0.0597743,1.4865,2692.11,2023.4)"><path d="M1417,671.423C1417,671.423 1420.04,699.73 1405.55,720.961C1432.17,706.807 1437.22,696.023 1447.33,674.456C1457.44,652.888 1417,671.423 1417,671.423Z" style="fill:rgb(203,68,29);"/></g></g><path d="M1248.67,3086.39C1248.67,3086.39 1171.34,3116.01 1132.67,3115.19C1094,3114.37 1101.4,3301.95 1110.45,3322.52C1140.48,3177.14 1158.16,3170.65 1158.16,3170.65C1158.16,3170.65 1252.79,3179.36 1284.05,3143.16C1315.32,3106.96 1277.47,3078.17 1248.67,3086.39Z" style="fill:none;stroke:rgb(107,0,0);stroke-width:15.56px;"/></g><g transform="matrix(0.769497,0.231083,-0.231083,0.769497,-1125.58,-2441.67)"><path d="M1248.67,3086.39C1248.67,3086.39 1171.34,3116.01 1132.67,3115.19C1094,3114.37 1101.4,3301.95 1110.45,3322.52C1140.48,3177.14 1158.16,3170.65 1158.16,3170.65C1158.16,3170.65 1252.79,3179.36 1284.05,3143.16C1315.32,3106.96 1277.47,3078.17 1248.67,3086.39Z" style="fill:rgb(239,107,68);"/><clipPath id="_clip10"><path d="M1248.67,3086.39C1248.67,3086.39 1171.34,3116.01 1132.67,3115.19C1094,3114.37 1101.4,3301.95 1110.45,3322.52C1140.48,3177.14 1158.16,3170.65 1158.16,3170.65C1158.16,3170.65 1252.79,3179.36 1284.05,3143.16C1315.32,3106.96 1277.47,3078.17 1248.67,3086.39Z"/></clipPath><g clip-path="url(#_clip10)"><g transform="matrix(-1.12778,0.0453497,0.0597743,1.4865,2692.11,2023.4)"><path d="M1417,671.423C1417,671.423 1420.04,699.73 1405.55,720.961C1432.17,706.807 1437.22,696.023 1447.33,674.456C1457.44,652.888 1417,671.423 1417,671.423Z" style="fill:rgb(203,68,29);"/></g></g><path d="M1248.67,3086.39C1248.67,3086.39 1171.34,3116.01 1132.67,3115.19C1094,3114.37 1101.4,3301.95 1110.45,3322.52C1140.48,3177.14 1158.16,3170.65 1158.16,3170.65C1158.16,3170.65 1252.79,3179.36 1284.05,3143.16C1315.32,3106.96 1277.47,3078.17 1248.67,3086.39Z" style="fill:none;stroke:rgb(107,0,0);stroke-width:15.56px;"/></g><g transform="matrix(1,0,0,1,-962.839,-640.56)"><ellipse cx="702.804" cy="671.319" rx="13.427" ry="14.48" style="fill:rgb(254,184,163);"/></g><g transform="matrix(0.361526,0.639504,-0.497788,0.281411,-276.733,-1018.71)"><path d="M1142.48,969.144C1142.48,969.144 1159.76,933.76 1207.36,912.276" style="fill:none;stroke:rgb(254,184,163);stroke-width:37.98px;"/></g><g transform="matrix(0.984294,-0.176534,-0.176534,-0.984294,-4346.41,1726.6)"><g transform="matrix(-0.683102,0.730323,0.730323,0.683102,3154.08,-2316.07)"><path d="M1308.7,3132.3C1308.7,3132.3 1261.97,3275.13 1399.54,3318.57C1410.07,3299.48 1412.7,3283.03 1412.7,3283.03C1412.7,3283.03 1297.52,3277.1 1336.35,3133.61C1323.05,3111.66 1308.7,3132.3 1308.7,3132.3Z" style="fill:rgb(239,107,68);stroke:rgb(107,0,0);stroke-width:8.33px;"/></g><g transform="matrix(-0.683102,0.730323,0.730323,0.683102,3154.08,-2316.07)"><path d="M1657.77,3270.31C1657.77,3270.31 1606.43,3234.77 1516.92,3242.01C1427.4,3249.25 1410.95,3282.16 1410.95,3282.16L1399.1,3317.7C1399.1,3317.7 1397.12,3409.19 1493.88,3438.81C1590.63,3468.43 1701.21,3411.82 1708.45,3351.27C1608.41,3352.58 1536.66,3336.79 1536.66,3336.79L1657.77,3270.31Z" style="fill:rgb(239,107,68);"/><clipPath id="_clip11"><path d="M1657.77,3270.31C1657.77,3270.31 1606.43,3234.77 1516.92,3242.01C1427.4,3249.25 1410.95,3282.16 1410.95,3282.16L1399.1,3317.7C1399.1,3317.7 1397.12,3409.19 1493.88,3438.81C1590.63,3468.43 1701.21,3411.82 1708.45,3351.27C1608.41,3352.58 1536.66,3336.79 1536.66,3336.79L1657.77,3270.31Z"/></clipPath><g clip-path="url(#_clip11)"><g transform="matrix(0.997354,-0.0989929,-0.0870313,-0.876841,687.834,4231.39)"><path d="M767.134,917.973C767.134,917.973 850.231,1013.41 972.821,990.375C1095.41,967.338 1115.98,943.478 1115.98,943.478C1115.98,943.478 1076.49,1048.79 992.567,1061.13C908.646,1073.47 787.703,1026.58 761.375,968.983C735.047,911.391 767.134,917.973 767.134,917.973Z" style="fill:rgb(203,68,29);"/></g></g><path d="M1657.77,3270.31C1657.77,3270.31 1606.43,3234.77 1516.92,3242.01C1427.4,3249.25 1410.95,3282.16 1410.95,3282.16L1399.1,3317.7C1399.1,3317.7 1397.12,3409.19 1493.88,3438.81C1590.63,3468.43 1701.21,3411.82 1708.45,3351.27C1608.41,3352.58 1536.66,3336.79 1536.66,3336.79L1657.77,3270.31Z" style="fill:none;stroke:rgb(107,0,0);stroke-width:12.5px;"/></g><g transform="matrix(-1.17701,-0.086651,0.0733274,-0.996031,5870.83,2212.17)"><path d="M1142.48,969.144C1142.48,969.144 1159.76,933.76 1207.36,912.276" style="fill:none;stroke:rgb(254,184,163);stroke-width:22.87px;"/></g></g></g></g></g></svg>