<?xml version="1.0" encoding="UTF-8" standalone="no"?><!DOCTYPE svg PUBLIC "-//W3C//DTD SVG 1.1//EN" "http://www.w3.org/Graphics/SVG/1.1/DTD/svg11.dtd"><svg width="100%" height="100%" viewBox="0 0 681 681" version="1.1" xmlns="http://www.w3.org/2000/svg" xmlns:xlink="http://www.w3.org/1999/xlink" xml:space="preserve" xmlns:serif="http://www.serif.com/" style="fill-rule:evenodd;clip-rule:evenodd;stroke-linecap:round;stroke-linejoin:round;stroke-miterlimit:1.5;"><g transform="matrix(0.48,0,0,0.48,-1551.23,-8378.73)"><g id="_43" serif:id="43" transform="matrix(0.142687,0,0,0.20202,3231.74,17455.7)"><rect x="0" y="0" width="9933.07" height="7015.75" style="fill:none;"/><g transform="matrix(6.36316,0,0,4.49431,-88969.8,-36504.1)"><g transform="matrix(0.705097,0.0441148,-0.0441148,0.705097,13621.3,6789.6)"><path d="M1248.67,3086.39C1248.67,3086.39 1171.34,3116.01 1132.67,3115.19C1094,3114.37 1101.4,3301.95 1110.45,3322.52C1140.48,3177.14 1159.6,3160.73 1159.6,3160.73C1159.6,3160.73 1240.62,3172.42 1271.89,3136.22C1303.15,3100.02 1277.47,3078.17 1248.67,3086.39Z" style="fill:rgb(203,68,29);"/><clipPath id="_clip1"><path d="M1248.67,3086.39C1248.67,3086.39 1171.34,3116.01 1132.67,3115.19C1094,3114.37 1101.4,3301.95 1110.45,3322.52C1140.48,3177.14 1159.6,3160.73 1159.6,3160.73C1159.6,3160.73 1240.62,3172.42 1271.89,3136.22C1303.15,3100.02 1277.47,3078.17 1248.67,3086.39Z"/></clipPath><g clip-path="url(#_clip1)"><g transform="matrix(-1.12778,0.0453497,0.0597743,1.4865,2692.11,2023.4)"><path d="M1417,671.423C1417,671.423 1420.04,699.73 1405.55,720.961C1432.17,706.807 1437.22,696.023 1447.33,674.456C1457.44,652.888 1417,671.423 1417,671.423Z" style="fill:rgb(203,68,29);"/></g></g><path d="M1248.67,3086.39C1248.67,3086.39 1171.34,3116.01 1132.67,3115.19C1094,3114.37 1101.4,3301.95 1110.45,3322.52C1140.48,3177.14 1159.6,3160.73 1159.6,3160.73C1159.6,3160.73 1240.62,3172.42 1271.89,3136.22C1303.15,3100.02 1277.47,3078.17 1248.67,3086.39Z" style="fill:none;stroke:rgb(107,0,0);stroke-width:17.69px;"/></g><g transform="matrix(-0.682478,0.182572,0.182572,0.682478,15567.1,6672.71)"><path d="M1248.67,3086.39C1248.67,3086.39 1171.34,3116.01 1132.67,3115.19C1094,3114.37 1101.4,3301.95 1110.45,3322.52C1140.48,3177.14 1159.6,3160.73 1159.6,3160.73C1159.6,3160.73 1240.62,3172.42 1271.89,3136.22C1303.15,3100.02 1277.47,3078.17 1248.67,3086.39Z" style="fill:rgb(203,68,29);"/><clipPath id="_clip2"><path d="M1248.67,3086.39C1248.67,3086.39 1171.34,3116.01 1132.67,3115.19C1094,3114.37 1101.4,3301.95 1110.45,3322.52C1140.48,3177.14 1159.6,3160.73 1159.6,3160.73C1159.6,3160.73 1240.62,3172.42 1271.89,3136.22C1303.15,3100.02 1277.47,3078.17 1248.67,3086.39Z"/></clipPath><g clip-path="url(#_clip2)"><g transform="matrix(-1.12778,0.0453497,0.0597743,1.4865,2692.11,2023.4)"><path d="M1417,671.423C1417,671.423 1420.04,699.73 1405.55,720.961C1432.17,706.807 1437.22,696.023 1447.33,674.456C1457.44,652.888 1417,671.423 1417,671.423Z" style="fill:rgb(203,68,29);"/></g></g><path d="M1248.67,3086.39C1248.67,3086.39 1171.34,3116.01 1132.67,3115.19C1094,3114.37 1101.4,3301.95 1110.45,3322.52C1140.48,3177.14 1159.6,3160.73 1159.6,3160.73C1159.6,3160.73 1240.62,3172.42 1271.89,3136.22C1303.15,3100.02 1277.47,3078.17 1248.67,3086.39Z" style="fill:none;stroke:rgb(107,0,0);stroke-width:17.69px;"/></g><g transform="matrix(1,0,0,1,13270.6,6031.07)"><path d="M1110.2,2904.44C1110.2,2904.44 1142.34,2914.72 1184.76,2882.59C1227.18,2850.45 1362.57,2706.35 1565.28,2705.18C1788.97,2703.89 1942.32,2865.49 1992.09,2886.44C2040.94,2907.01 2057.65,2874.87 2057.65,2909.58C2057.65,2937.06 1962.52,3212.97 1556.29,3215.54C1150.05,3218.11 1034.35,2901.87 1110.2,2904.44Z" style="fill:rgb(239,107,68);"/><clipPath id="_clip3"><path d="M1110.2,2904.44C1110.2,2904.44 1142.34,2914.72 1184.76,2882.59C1227.18,2850.45 1362.57,2706.35 1565.28,2705.18C1788.97,2703.89 1942.32,2865.49 1992.09,2886.44C2040.94,2907.01 2057.65,2874.87 2057.65,2909.58C2057.65,2937.06 1962.52,3212.97 1556.29,3215.54C1150.05,3218.11 1034.35,2901.87 1110.2,2904.44Z"/></clipPath><g clip-path="url(#_clip3)"><g transform="matrix(1,0,0,1,617.9,2407.85)"><path d="M479.157,464.062C479.157,464.062 551.559,621.371 662.136,675.344C772.713,729.316 901.72,765.517 1112.34,724.709C1322.97,683.9 1396.23,476.568 1454.61,448.924C1512.98,421.279 1468.88,535.806 1432.68,608.866C1396.48,681.926 1225.35,860.955 937.715,847.133C650.083,833.311 432.22,630.586 437.485,545.021C442.751,459.455 451.06,441.684 479.157,464.062Z" style="fill:rgb(203,68,29);"/></g></g><path d="M1110.2,2904.44C1110.2,2904.44 1142.34,2914.72 1184.76,2882.59C1227.18,2850.45 1362.57,2706.35 1565.28,2705.18C1788.97,2703.89 1942.32,2865.49 1992.09,2886.44C2040.94,2907.01 2057.65,2874.87 2057.65,2909.58C2057.65,2937.06 1962.52,3212.97 1556.29,3215.54C1150.05,3218.11 1034.35,2901.87 1110.2,2904.44Z" style="fill:none;stroke:rgb(107,0,0);stroke-width:16.67px;"/></g><g transform="matrix(0.999222,0.0394465,-0.0394465,0.999222,12612.8,8036.33)"><g transform="matrix(1,0,0,1,670.035,-2123.98)"><circle cx="1441.47" cy="3014.57" r="92.148" style="fill:white;stroke:rgb(107,0,0);stroke-width:12.5px;"/></g><g transform="matrix(1,0,0,1,972.806,-2145.37)"><circle cx="1441.47" cy="3014.57" r="92.148" style="fill:white;stroke:rgb(107,0,0);stroke-width:12.5px;"/></g><g transform="matrix(1,0,0,1,683.701,-2078.43)"><path d="M1547.1,3059.33C1547.1,3059.33 1554.34,3107.38 1589.88,3101.46C1600.85,3099.63 1608.5,3093.85 1613.83,3086.73C1625.77,3070.79 1626.08,3048.14 1626.08,3048.14" style="fill:none;stroke:rgb(107,0,0);stroke-width:12.5px;"/></g><g transform="matrix(0.626282,0,0,0.882678,1193.95,-1764.5)"><circle cx="1421.8" cy="3047.33" r="39.229" style="fill:rgb(107,0,0);"/></g><g transform="matrix(0.626282,0,0,0.882678,1494.07,-1780.08)"><circle cx="1421.8" cy="3047.33" r="39.229" style="fill:rgb(107,0,0);"/></g><g transform="matrix(0.857454,0.514561,-0.514561,0.857454,1632.37,203.655)"><ellipse cx="611.328" cy="302.848" rx="8.162" ry="16.06" style="fill:rgb(107,0,0);"/></g><g transform="matrix(0.846682,-0.532099,0.532099,0.846682,1841.83,822.802)"><ellipse cx="611.328" cy="302.848" rx="8.162" ry="16.06" style="fill:rgb(107,0,0);"/></g><g transform="matrix(1,0,0,1,1290.08,312.295)"><ellipse cx="702.804" cy="671.319" rx="13.427" ry="14.48" style="fill:rgb(254,184,163);"/></g><g transform="matrix(1,0,0,1,1838.74,273.227)"><ellipse cx="702.804" cy="671.319" rx="13.427" ry="14.48" style="fill:rgb(254,184,163);"/></g></g><g transform="matrix(1.17252,0,0,1.24058,13184.6,5274.62)"><path d="M1143.26,2904.12C1143.26,2904.12 1137.19,2843.47 1151.68,2833.02C1166.18,2822.57 1218.75,2852.23 1218.75,2852.23" style="fill:rgb(239,107,68);stroke:rgb(107,0,0);stroke-width:6.9px;"/></g><g transform="matrix(0.526555,1.04764,-1.10845,0.55712,17682.7,5997.25)"><path d="M1143.26,2904.12C1143.26,2904.12 1137.19,2843.47 1151.68,2833.02C1166.18,2822.57 1218.75,2852.23 1218.75,2852.23" style="fill:rgb(239,107,68);stroke:rgb(107,0,0);stroke-width:6.9px;"/></g><g transform="matrix(0.910473,0,0,0.963323,13396.3,6146.53)"><path d="M1143.26,2904.12C1143.26,2904.12 1137.19,2843.47 1151.68,2833.02C1166.18,2822.57 1218.75,2852.23 1218.75,2852.23" style="fill:rgb(239,107,68);stroke:rgb(107,0,0);stroke-width:9.79px;"/></g><g transform="matrix(0.276208,0.867565,-0.917925,0.292241,17525.7,7031.62)"><path d="M1143.26,2904.12C1143.26,2904.12 1137.19,2843.47 1151.68,2833.02C1166.18,2822.57 1218.75,2852.23 1218.75,2852.23" style="fill:rgb(239,107,68);stroke:rgb(107,0,0);stroke-width:8.89px;"/></g><g transform="matrix(-0.892734,0.450584,-0.450584,-0.892734,21566.5,9608.86)"><g transform="matrix(1,0,0,1,4650.56,680.589)"><path d="M1308.7,3132.3C1308.7,3132.3 1261.97,3275.13 1399.54,3318.57C1410.07,3299.48 1412.7,3283.03 1412.7,3283.03C1412.7,3283.03 1297.52,3277.1 1336.35,3133.61C1323.05,3111.66 1308.7,3132.3 1308.7,3132.3Z" style="fill:rgb(239,107,68);stroke:rgb(107,0,0);stroke-width:8.33px;"/></g><g transform="matrix(1,0,0,1,4650.56,680.589)"><path d="M1657.77,3270.31C1657.77,3270.31 1606.43,3234.77 1516.92,3242.01C1427.4,3249.25 1410.95,3282.16 1410.95,3282.16L1399.1,3317.7C1399.1,3317.7 1397.12,3409.19 1493.88,3438.81C1590.63,3468.43 1701.21,3411.82 1708.45,3351.27C1608.41,3352.58 1536.66,3336.79 1536.66,3336.79L1657.77,3270.31Z" style="fill:rgb(239,107,68);"/><clipPath id="_clip4"><path d="M1657.77,3270.31C1657.77,3270.31 1606.43,3234.77 1516.92,3242.01C1427.4,3249.25 1410.95,3282.16 1410.95,3282.16L1399.1,3317.7C1399.1,3317.7 1397.12,3409.19 1493.88,3438.81C1590.63,3468.43 1701.21,3411.82 1708.45,3351.27C1608.41,3352.58 1536.66,3336.79 1536.66,3336.79L1657.77,3270.31Z"/></clipPath><g clip-path="url(#_clip4)"><g transform="matrix(-0.977054,0.212991,-0.212991,-0.977054,2652.56,4061.54)"><path d="M767.134,917.973C767.134,917.973 850.231,1013.41 972.821,990.375C1095.41,967.338 1115.98,943.478 1115.98,943.478C1115.98,943.478 1076.49,1048.79 992.567,1061.13C908.646,1073.47 787.703,1026.58 761.375,968.983C735.047,911.391 767.134,917.973 767.134,917.973Z" style="fill:rgb(203,68,29);"/></g></g><path d="M1657.77,3270.31C1657.77,3270.31 1606.43,3234.77 1516.92,3242.01C1427.4,3249.25 1410.95,3282.16 1410.95,3282.16L1399.1,3317.7C1399.1,3317.7 1397.12,3409.19 1493.88,3438.81C1590.63,3468.43 1701.21,3411.82 1708.45,3351.27C1608.41,3352.58 1536.66,3336.79 1536.66,3336.79L1657.77,3270.31Z" style="fill:none;stroke:rgb(107,0,0);stroke-width:12.5px;"/></g><g transform="matrix(-0.695692,-0.235964,0.183673,-0.541524,6899.82,4865.65)"><path d="M1142.48,969.144C1142.48,969.144 1159.76,933.76 1207.36,912.276" style="fill:none;stroke:rgb(254,184,163);stroke-width:37.98px;"/></g></g><g transform="matrix(0.877898,0.478848,0.478848,-0.877898,7745,9164.95)"><g transform="matrix(-0.683102,0.730323,0.730323,0.683102,5080.14,694.699)"><path d="M1308.7,3132.3C1308.7,3132.3 1261.97,3275.13 1399.54,3318.57C1410.07,3299.48 1412.7,3283.03 1412.7,3283.03C1412.7,3283.03 1297.52,3277.1 1336.35,3133.61C1323.05,3111.66 1308.7,3132.3 1308.7,3132.3Z" style="fill:rgb(239,107,68);stroke:rgb(107,0,0);stroke-width:8.33px;"/></g><g transform="matrix(-0.683102,0.730323,0.730323,0.683102,5080.14,694.699)"><path d="M1657.77,3270.31C1657.77,3270.31 1606.43,3234.77 1516.92,3242.01C1427.4,3249.25 1410.95,3282.16 1410.95,3282.16L1399.1,3317.7C1399.1,3317.7 1397.12,3409.19 1493.88,3438.81C1590.63,3468.43 1701.21,3411.82 1708.45,3351.27C1608.41,3352.58 1536.66,3336.79 1536.66,3336.79L1657.77,3270.31Z" style="fill:rgb(239,107,68);"/><clipPath id="_clip5"><path d="M1657.77,3270.31C1657.77,3270.31 1606.43,3234.77 1516.92,3242.01C1427.4,3249.25 1410.95,3282.16 1410.95,3282.16L1399.1,3317.7C1399.1,3317.7 1397.12,3409.19 1493.88,3438.81C1590.63,3468.43 1701.21,3411.82 1708.45,3351.27C1608.41,3352.58 1536.66,3336.79 1536.66,3336.79L1657.77,3270.31Z"/></clipPath><g clip-path="url(#_clip5)"><g transform="matrix(0.937367,-0.354765,-0.311898,-0.824102,915.111,4444.43)"><path d="M767.134,917.973C767.134,917.973 850.231,1013.41 972.821,990.375C1095.41,967.338 1115.98,943.478 1115.98,943.478C1115.98,943.478 1076.49,1048.79 992.567,1061.13C908.646,1073.47 787.703,1026.58 761.375,968.983C735.047,911.391 767.134,917.973 767.134,917.973Z" style="fill:rgb(203,68,29);"/></g></g><path d="M1657.77,3270.31C1657.77,3270.31 1606.43,3234.77 1516.92,3242.01C1427.4,3249.25 1410.95,3282.16 1410.95,3282.16L1399.1,3317.7C1399.1,3317.7 1397.12,3409.19 1493.88,3438.81C1590.63,3468.43 1701.21,3411.82 1708.45,3351.27C1608.41,3352.58 1536.66,3336.79 1536.66,3336.79L1657.77,3270.31Z" style="fill:none;stroke:rgb(107,0,0);stroke-width:12.5px;"/></g><g transform="matrix(-1.17121,0.145327,-0.122982,-0.991126,7980.91,4921.23)"><path d="M1142.48,969.144C1142.48,969.144 1159.76,933.76 1207.36,912.276" style="fill:none;stroke:rgb(254,184,163);stroke-width:22.87px;"/></g></g><g transform="matrix(1.37046,0.320967,-0.327914,1.40012,14021.2,4375.9)"><path d="M1143.26,2904.12C1143.26,2904.12 1137.19,2843.47 1151.68,2833.02C1166.18,2822.57 1218.75,2852.23 1218.75,2852.23" style="fill:rgb(239,107,68);stroke:rgb(107,0,0);stroke-width:5.86px;"/></g><g transform="matrix(1.17875,0.769226,-0.785875,1.20427,15706.7,4383.11)"><path d="M1143.26,2904.12C1143.26,2904.12 1137.19,2843.47 1151.68,2833.02C1166.18,2822.57 1218.75,2852.23 1218.75,2852.23" style="fill:rgb(239,107,68);stroke:rgb(107,0,0);stroke-width:5.86px;"/></g><g transform="matrix(0.882915,1.09619,-1.11992,0.902025,17163.1,4889.11)"><path d="M1143.26,2904.12C1143.26,2904.12 1137.19,2843.47 1151.68,2833.02C1166.18,2822.57 1218.75,2852.23 1218.75,2852.23" style="fill:rgb(239,107,68);stroke:rgb(107,0,0);stroke-width:5.86px;"/></g><g transform="matrix(1,0,0,1,14339.8,8172.31)"><ellipse cx="702.804" cy="671.319" rx="13.427" ry="14.48" style="fill:rgb(254,184,163);"/></g><g transform="matrix(0.361526,0.639504,-0.497788,0.281411,15025.9,7794.16)"><path d="M1142.48,969.144C1142.48,969.144 1159.76,933.76 1207.36,912.276" style="fill:none;stroke:rgb(254,184,163);stroke-width:37.98px;"/></g><g transform="matrix(0.82048,-0.210331,0.210331,0.82048,12720.7,6795.08)"><path d="M1248.67,3086.39C1248.67,3086.39 1171.34,3116.01 1132.67,3115.19C1094,3114.37 1101.4,3301.95 1110.45,3322.52C1140.48,3177.14 1148.96,3159.97 1148.96,3159.97C1148.96,3159.97 1245.46,3164.78 1277.5,3133.35C1307.81,3103.61 1277.47,3078.17 1248.67,3086.39Z" style="fill:rgb(239,107,68);"/><clipPath id="_clip6"><path d="M1248.67,3086.39C1248.67,3086.39 1171.34,3116.01 1132.67,3115.19C1094,3114.37 1101.4,3301.95 1110.45,3322.52C1140.48,3177.14 1148.96,3159.97 1148.96,3159.97C1148.96,3159.97 1245.46,3164.78 1277.5,3133.35C1307.81,3103.61 1277.47,3078.17 1248.67,3086.39Z"/></clipPath><g clip-path="url(#_clip6)"><g transform="matrix(-0.76966,0.0648653,0.0914149,1.08469,2160.86,2278.49)"><path d="M1417,671.423C1417,671.423 1420.04,699.73 1405.55,720.961C1432.17,706.807 1437.22,696.023 1447.33,674.456C1457.44,652.888 1417,671.423 1417,671.423Z" style="fill:rgb(203,68,29);"/></g></g><path d="M1248.67,3086.39C1248.67,3086.39 1171.34,3116.01 1132.67,3115.19C1094,3114.37 1101.4,3301.95 1110.45,3322.52C1140.48,3177.14 1148.96,3159.97 1148.96,3159.97C1148.96,3159.97 1245.46,3164.78 1277.5,3133.35C1307.81,3103.61 1277.47,3078.17 1248.67,3086.39Z" style="fill:none;stroke:rgb(107,0,0);stroke-width:14.76px;"/></g><g transform="matrix(0.844363,-0.36779,0.36779,0.844363,12261.5,6955.39)"><path d="M1248.67,3086.39C1248.67,3086.39 1171.34,3116.01 1132.67,3115.19C1094,3114.37 1101.4,3301.95 1110.45,3322.52C1140.48,3177.14 1148.96,3159.97 1148.96,3159.97C1148.96,3159.97 1245.46,3164.78 1277.5,3133.35C1307.81,3103.61 1277.47,3078.17 1248.67,3086.39Z" style="fill:rgb(239,107,68);"/><clipPath id="_clip7"><path d="M1248.67,3086.39C1248.67,3086.39 1171.34,3116.01 1132.67,3115.19C1094,3114.37 1101.4,3301.95 1110.45,3322.52C1140.48,3177.14 1148.96,3159.97 1148.96,3159.97C1148.96,3159.97 1245.46,3164.78 1277.5,3133.35C1307.81,3103.61 1277.47,3078.17 1248.67,3086.39Z"/></clipPath><g clip-path="url(#_clip7)"><g transform="matrix(-0.76966,0.0648653,0.0914149,1.08469,2160.86,2278.49)"><path d="M1417,671.423C1417,671.423 1420.04,699.73 1405.55,720.961C1432.17,706.807 1437.22,696.023 1447.33,674.456C1457.44,652.888 1417,671.423 1417,671.423Z" style="fill:rgb(203,68,29);"/></g></g><path d="M1248.67,3086.39C1248.67,3086.39 1171.34,3116.01 1132.67,3115.19C1094,3114.37 1101.4,3301.95 1110.45,3322.52C1140.48,3177.14 1148.96,3159.97 1148.96,3159.97C1148.96,3159.97 1245.46,3164.78 1277.5,3133.35C1307.81,3103.61 1277.47,3078.17 1248.67,3086.39Z" style="fill:none;stroke:rgb(107,0,0);stroke-width:13.57px;"/></g><g transform="matrix(-0.845863,-0.044057,-0.044057,0.845863,16451,6500.14)"><path d="M1248.67,3086.39C1248.67,3086.39 1171.34,3116.01 1132.67,3115.19C1094,3114.37 1101.4,3301.95 1110.45,3322.52C1140.48,3177.14 1148.96,3159.97 1148.96,3159.97C1148.96,3159.97 1245.46,3164.78 1277.5,3133.35C1307.81,3103.61 1277.47,3078.17 1248.67,3086.39Z" style="fill:rgb(239,107,68);"/><clipPath id="_clip8"><path d="M1248.67,3086.39C1248.67,3086.39 1171.34,3116.01 1132.67,3115.19C1094,3114.37 1101.4,3301.95 1110.45,3322.52C1140.48,3177.14 1148.96,3159.97 1148.96,3159.97C1148.96,3159.97 1245.46,3164.78 1277.5,3133.35C1307.81,3103.61 1277.47,3078.17 1248.67,3086.39Z"/></clipPath><g clip-path="url(#_clip8)"><g transform="matrix(-0.76966,0.0648653,0.0914149,1.08469,2160.86,2278.49)"><path d="M1417,671.423C1417,671.423 1420.04,699.73 1405.55,720.961C1432.17,706.807 1437.22,696.023 1447.33,674.456C1457.44,652.888 1417,671.423 1417,671.423Z" style="fill:rgb(203,68,29);"/></g></g><path d="M1248.67,3086.39C1248.67,3086.39 1171.34,3116.01 1132.67,3115.19C1094,3114.37 1101.4,3301.95 1110.45,3322.52C1140.48,3177.14 1148.96,3159.97 1148.96,3159.97C1148.96,3159.97 1245.46,3164.78 1277.5,3133.35C1307.81,3103.61 1277.47,3078.17 1248.67,3086.39Z" style="fill:none;stroke:rgb(107,0,0);stroke-width:14.76px;"/></g><g transform="matrix(-0.90039,-0.193692,-0.193692,0.90039,16932.9,6566.54)"><path d="M1248.67,3086.39C1248.67,3086.39 1171.34,3116.01 1132.67,3115.19C1094,3114.37 1101.4,3301.95 1110.45,3322.52C1140.48,3177.14 1148.96,3159.97 1148.96,3159.97C1148.96,3159.97 1245.46,3164.78 1277.5,3133.35C1307.81,3103.61 1277.47,3078.17 1248.67,3086.39Z" style="fill:rgb(239,107,68);"/><clipPath id="_clip9"><path d="M1248.67,3086.39C1248.67,3086.39 1171.34,3116.01 1132.67,3115.19C1094,3114.37 1101.4,3301.95 1110.45,3322.52C1140.48,3177.14 1148.96,3159.97 1148.96,3159.97C1148.96,3159.97 1245.46,3164.78 1277.5,3133.35C1307.81,3103.61 1277.47,3078.17 1248.67,3086.39Z"/></clipPath><g clip-path="url(#_clip9)"><g transform="matrix(-0.76966,0.0648653,0.0914149,1.08469,2160.86,2278.49)"><path d="M1417,671.423C1417,671.423 1420.04,699.73 1405.55,720.961C1432.17,706.807 1437.22,696.023 1447.33,674.456C1457.44,652.888 1417,671.423 1417,671.423Z" style="fill:rgb(203,68,29);"/></g></g><path d="M1248.67,3086.39C1248.67,3086.39 1171.34,3116.01 1132.67,3115.19C1094,3114.37 1101.4,3301.95 1110.45,3322.52C1140.48,3177.14 1148.96,3159.97 1148.96,3159.97C1148.96,3159.97 1245.46,3164.78 1277.5,3133.35C1307.81,3103.61 1277.47,3078.17 1248.67,3086.39Z" style="fill:none;stroke:rgb(107,0,0);stroke-width:13.57px;"/></g><g transform="matrix(1.41659,0,0,1.41659,4492,2212.06)"><circle cx="7185.04" cy="4795.25" r="94.411" style="fill:none;stroke:rgb(56,0,0);stroke-width:11.77px;"/></g><g transform="matrix(1.45742,0,0,1.45742,4539.46,2004.66)"><circle cx="7185.04" cy="4795.25" r="94.411" style="fill:none;stroke:rgb(56,0,0);stroke-width:11.44px;"/></g><g transform="matrix(0.904273,0,0,0.950386,7599.09,4722.43)"><path d="M7967.51,4517.58C7967.51,4517.58 7979.45,4488.8 8004.3,4487.97C8029.15,4487.14 8045.42,4515.64 8045.42,4515.64" style="fill:none;stroke:rgb(56,0,0);stroke-width:17.97px;"/></g><g transform="matrix(0.691842,0,0.160053,0.691842,4729.26,2915.39)"><rect x="11384.9" y="8664.21" width="804.258" height="513.193" style="fill:rgb(203,206,205);stroke:rgb(70,61,76);stroke-width:12.5px;"/></g><g transform="matrix(0.691842,0,0,0.691842,6118.76,2909.28)"><rect x="11499.8" y="9185.06" width="1014.9" height="72.766" style="fill:rgb(203,206,205);stroke:rgb(70,61,76);stroke-width:12.5px;"/></g></g></g></g></svg>