<?xml version="1.0" encoding="UTF-8" standalone="no"?><!DOCTYPE svg PUBLIC "-//W3C//DTD SVG 1.1//EN" "http://www.w3.org/Graphics/SVG/1.1/DTD/svg11.dtd"><svg width="100%" height="100%" viewBox="0 0 681 681" version="1.1" xmlns="http://www.w3.org/2000/svg" xmlns:xlink="http://www.w3.org/1999/xlink" xml:space="preserve" xmlns:serif="http://www.serif.com/" style="fill-rule:evenodd;clip-rule:evenodd;stroke-linecap:round;stroke-linejoin:round;stroke-miterlimit:1.5;"><g transform="matrix(0.48,0,0,0.48,-775.617,-9201.55)"><g id="_47" serif:id="47" transform="matrix(0.142687,0,0,0.20202,1615.87,19169.9)"><rect x="0" y="0" width="9933.07" height="7015.75" style="fill:none;"/><g transform="matrix(10.098,0,0,7.13224,-20721.2,-150132)"><g transform="matrix(0.61438,0,0,0.461264,-164.32,19501.7)"><g transform="matrix(0.514011,0.174303,-0.130863,0.684637,4088.26,2249.67)"><path d="M1248.67,3086.39C1248.67,3086.39 1171.34,3116.01 1132.67,3115.19C1094,3114.37 1101.4,3301.95 1110.45,3322.52C1140.48,3177.14 1159.6,3160.73 1159.6,3160.73C1159.6,3160.73 1240.62,3172.42 1271.89,3136.22C1303.15,3100.02 1277.47,3078.17 1248.67,3086.39Z" style="fill:rgb(203,68,29);"/><clipPath id="_clip1"><path d="M1248.67,3086.39C1248.67,3086.39 1171.34,3116.01 1132.67,3115.19C1094,3114.37 1101.4,3301.95 1110.45,3322.52C1140.48,3177.14 1159.6,3160.73 1159.6,3160.73C1159.6,3160.73 1240.62,3172.42 1271.89,3136.22C1303.15,3100.02 1277.47,3078.17 1248.67,3086.39Z"/></clipPath><g clip-path="url(#_clip1)"><g transform="matrix(-1.12778,0.0453497,0.0597743,1.4865,2692.11,2023.4)"><path d="M1417,671.423C1417,671.423 1420.04,699.73 1405.55,720.961C1432.17,706.807 1437.22,696.023 1447.33,674.456C1457.44,652.888 1417,671.423 1417,671.423Z" style="fill:rgb(203,68,29);"/></g></g><path d="M1248.67,3086.39C1248.67,3086.39 1171.34,3116.01 1132.67,3115.19C1094,3114.37 1101.4,3301.95 1110.45,3322.52C1140.48,3177.14 1159.6,3160.73 1159.6,3160.73C1159.6,3160.73 1240.62,3172.42 1271.89,3136.22C1303.15,3100.02 1277.47,3078.17 1248.67,3086.39Z" style="fill:none;stroke:rgb(107,0,0);stroke-width:17.69px;"/></g><g transform="matrix(-0.512391,0.182572,0.137071,0.682478,5273.13,2222.96)"><path d="M1248.67,3086.39C1248.67,3086.39 1171.34,3116.01 1132.67,3115.19C1094,3114.37 1101.4,3301.95 1110.45,3322.52C1140.48,3177.14 1159.6,3160.73 1159.6,3160.73C1159.6,3160.73 1240.62,3172.42 1271.89,3136.22C1303.15,3100.02 1277.47,3078.17 1248.67,3086.39Z" style="fill:rgb(203,68,29);"/><clipPath id="_clip2"><path d="M1248.67,3086.39C1248.67,3086.39 1171.34,3116.01 1132.67,3115.19C1094,3114.37 1101.4,3301.95 1110.45,3322.52C1140.48,3177.14 1159.6,3160.73 1159.6,3160.73C1159.6,3160.73 1240.62,3172.42 1271.89,3136.22C1303.15,3100.02 1277.47,3078.17 1248.67,3086.39Z"/></clipPath><g clip-path="url(#_clip2)"><g transform="matrix(-1.12778,0.0453497,0.0597743,1.4865,2692.11,2023.4)"><path d="M1417,671.423C1417,671.423 1420.04,699.73 1405.55,720.961C1432.17,706.807 1437.22,696.023 1447.33,674.456C1457.44,652.888 1417,671.423 1417,671.423Z" style="fill:rgb(203,68,29);"/></g></g><path d="M1248.67,3086.39C1248.67,3086.39 1171.34,3116.01 1132.67,3115.19C1094,3114.37 1101.4,3301.95 1110.45,3322.52C1140.48,3177.14 1159.6,3160.73 1159.6,3160.73C1159.6,3160.73 1240.62,3172.42 1271.89,3136.22C1303.15,3100.02 1277.47,3078.17 1248.67,3086.39Z" style="fill:none;stroke:rgb(107,0,0);stroke-width:17.69px;"/></g><g transform="matrix(0.75078,0,0,1,3510.52,1648.58)"><path d="M1110.2,2904.44C1110.2,2904.44 1142.34,2914.72 1184.76,2882.59C1227.18,2850.45 1362.57,2706.35 1565.28,2705.18C1788.97,2703.89 1942.32,2865.49 1992.09,2886.44C2040.94,2907.01 2057.65,2874.87 2057.65,2909.58C2057.65,2937.06 1962.52,3212.97 1556.29,3215.54C1150.05,3218.11 1034.35,2901.87 1110.2,2904.44Z" style="fill:rgb(239,107,68);"/><clipPath id="_clip3"><path d="M1110.2,2904.44C1110.2,2904.44 1142.34,2914.72 1184.76,2882.59C1227.18,2850.45 1362.57,2706.35 1565.28,2705.18C1788.97,2703.89 1942.32,2865.49 1992.09,2886.44C2040.94,2907.01 2057.65,2874.87 2057.65,2909.58C2057.65,2937.06 1962.52,3212.97 1556.29,3215.54C1150.05,3218.11 1034.35,2901.87 1110.2,2904.44Z"/></clipPath><g clip-path="url(#_clip3)"><g transform="matrix(1,0,0,1,617.9,2407.85)"><path d="M479.157,464.062C479.157,464.062 551.559,621.371 662.136,675.344C772.713,729.316 901.72,765.517 1112.34,724.709C1322.97,683.9 1396.23,476.568 1454.61,448.924C1512.98,421.279 1468.88,535.806 1432.68,608.866C1396.48,681.926 1225.35,860.955 937.715,847.133C650.083,833.311 432.22,630.586 437.485,545.021C442.751,459.455 451.06,441.684 479.157,464.062Z" style="fill:rgb(203,68,29);"/></g></g><path d="M1110.2,2904.44C1110.2,2904.44 1142.34,2914.72 1184.76,2882.59C1227.18,2850.45 1362.57,2706.35 1565.28,2705.18C1788.97,2703.89 1942.32,2865.49 1992.09,2886.44C2040.94,2907.01 2057.65,2874.87 2057.65,2909.58C2057.65,2937.06 1962.52,3212.97 1556.29,3215.54C1150.05,3218.11 1034.35,2901.87 1110.2,2904.44Z" style="fill:none;stroke:rgb(107,0,0);stroke-width:16.67px;"/></g><g transform="matrix(0.75078,0,0,1,3005.49,4138.25)"><g transform="matrix(1,0,0,1,653.58,-2494.22)"><circle cx="1441.47" cy="3014.57" r="92.148" style="fill:white;stroke:rgb(107,0,0);stroke-width:12.5px;"/></g><g transform="matrix(1,0,0,1,956.351,-2515.61)"><circle cx="1441.47" cy="3014.57" r="92.148" style="fill:white;stroke:rgb(107,0,0);stroke-width:12.5px;"/></g><path d="M2215.39,619.806C2230,632.981 2240.39,655.513 2282.26,608.222" style="fill:none;stroke:rgb(107,0,0);stroke-width:12.5px;"/><g transform="matrix(0.626282,0,0,0.882678,1176.43,-2204.96)"><circle cx="1421.8" cy="3047.33" r="39.229" style="fill:rgb(107,0,0);"/></g><g transform="matrix(0.626282,0,0,0.882678,1462.89,-2212.74)"><circle cx="1421.8" cy="3047.33" r="39.229" style="fill:rgb(107,0,0);"/></g><g transform="matrix(0.512084,0.858935,-0.858935,0.512084,2003.84,-286.063)"><ellipse cx="611.328" cy="302.848" rx="8.162" ry="16.06" style="fill:rgb(107,0,0);"/></g><g transform="matrix(0.117639,-0.993056,0.993056,0.117639,2024.23,934.524)"><ellipse cx="611.328" cy="302.848" rx="8.162" ry="16.06" style="fill:rgb(107,0,0);"/></g><g transform="matrix(1,0,0,1,1271.48,-86.3722)"><ellipse cx="702.804" cy="671.319" rx="13.427" ry="14.48" style="fill:rgb(254,184,163);"/></g><g transform="matrix(1,0,0,1,1807.51,-118.492)"><ellipse cx="702.804" cy="671.319" rx="13.427" ry="14.48" style="fill:rgb(254,184,163);"/></g></g><g transform="matrix(0.880303,0,0,1.24058,3445.98,892.132)"><path d="M1143.26,2904.12C1143.26,2904.12 1137.19,2843.47 1151.68,2833.02C1166.18,2822.57 1218.75,2852.23 1218.75,2852.23" style="fill:rgb(239,107,68);stroke:rgb(107,0,0);stroke-width:6.9px;"/></g><g transform="matrix(0.395327,1.04764,-0.8322,0.55712,6823.04,1614.76)"><path d="M1143.26,2904.12C1143.26,2904.12 1137.19,2843.47 1151.68,2833.02C1166.18,2822.57 1218.75,2852.23 1218.75,2852.23" style="fill:rgb(239,107,68);stroke:rgb(107,0,0);stroke-width:6.9px;"/></g><g transform="matrix(0.683564,0,0,0.963323,3604.87,1764.04)"><path d="M1143.26,2904.12C1143.26,2904.12 1137.19,2843.47 1151.68,2833.02C1166.18,2822.57 1218.75,2852.23 1218.75,2852.23" style="fill:rgb(239,107,68);stroke:rgb(107,0,0);stroke-width:8.89px;"/></g><g transform="matrix(0.207371,0.867565,-0.68916,0.292241,6705.19,2649.13)"><path d="M1143.26,2904.12C1143.26,2904.12 1137.19,2843.47 1151.68,2833.02C1166.18,2822.57 1218.75,2852.23 1218.75,2852.23" style="fill:rgb(239,107,68);stroke:rgb(107,0,0);stroke-width:8.89px;"/></g><g transform="matrix(0.716398,0.299155,-0.224599,0.954205,1064.73,-643.462)"><g transform="matrix(1,0,0,1,4650.56,680.589)"><path d="M1308.7,3132.3C1308.7,3132.3 1261.97,3275.13 1399.54,3318.57C1410.07,3299.48 1412.7,3283.03 1412.7,3283.03C1412.7,3283.03 1297.52,3277.1 1336.35,3133.61C1323.05,3111.66 1308.7,3132.3 1308.7,3132.3Z" style="fill:rgb(239,107,68);stroke:rgb(107,0,0);stroke-width:8.33px;"/></g><g transform="matrix(1,0,0,1,4650.56,680.589)"><path d="M1657.77,3270.31C1657.77,3270.31 1606.43,3234.77 1516.92,3242.01C1427.4,3249.25 1410.95,3282.16 1410.95,3282.16L1399.1,3317.7C1399.1,3317.7 1397.12,3409.19 1493.88,3438.81C1590.63,3468.43 1701.21,3411.82 1708.45,3351.27C1608.41,3352.58 1536.66,3336.79 1536.66,3336.79L1657.77,3270.31Z" style="fill:rgb(239,107,68);"/><clipPath id="_clip4"><path d="M1657.77,3270.31C1657.77,3270.31 1606.43,3234.77 1516.92,3242.01C1427.4,3249.25 1410.95,3282.16 1410.95,3282.16L1399.1,3317.7C1399.1,3317.7 1397.12,3409.19 1493.88,3438.81C1590.63,3468.43 1701.21,3411.82 1708.45,3351.27C1608.41,3352.58 1536.66,3336.79 1536.66,3336.79L1657.77,3270.31Z"/></clipPath><g clip-path="url(#_clip4)"><g transform="matrix(1,0,0,1,617.9,2407.85)"><path d="M767.134,917.973C767.134,917.973 850.231,1013.41 972.821,990.375C1095.41,967.338 1115.98,943.478 1115.98,943.478C1115.98,943.478 1076.49,1048.79 992.567,1061.13C908.646,1073.47 787.703,1026.58 761.375,968.983C735.047,911.391 767.134,917.973 767.134,917.973Z" style="fill:rgb(203,68,29);"/></g></g><path d="M1657.77,3270.31C1657.77,3270.31 1606.43,3234.77 1516.92,3242.01C1427.4,3249.25 1410.95,3282.16 1410.95,3282.16L1399.1,3317.7C1399.1,3317.7 1397.12,3409.19 1493.88,3438.81C1590.63,3468.43 1701.21,3411.82 1708.45,3351.27C1608.41,3352.58 1536.66,3336.79 1536.66,3336.79L1657.77,3270.31Z" style="fill:none;stroke:rgb(107,0,0);stroke-width:12.5px;"/></g><g transform="matrix(0.613586,0.403952,-0.314435,0.477614,5770.21,3032.8)"><path d="M1142.48,969.144C1142.48,969.144 1159.76,933.76 1207.36,912.276" style="fill:none;stroke:rgb(254,184,163);stroke-width:37.98px;"/></g></g><g transform="matrix(0.668532,0.455082,-0.341666,0.89045,1897.04,-1562.32)"><g transform="matrix(-0.683102,0.730323,0.730323,0.683102,5080.14,694.699)"><path d="M1308.7,3132.3C1308.7,3132.3 1261.97,3275.13 1399.54,3318.57C1410.07,3299.48 1412.7,3283.03 1412.7,3283.03C1412.7,3283.03 1297.52,3277.1 1336.35,3133.61C1323.05,3111.66 1308.7,3132.3 1308.7,3132.3Z" style="fill:rgb(239,107,68);stroke:rgb(107,0,0);stroke-width:8.33px;"/></g><g transform="matrix(-0.683102,0.730323,0.730323,0.683102,5080.14,694.699)"><path d="M1657.77,3270.31C1657.77,3270.31 1606.43,3234.77 1516.92,3242.01C1427.4,3249.25 1410.95,3282.16 1410.95,3282.16L1399.1,3317.7C1399.1,3317.7 1397.12,3409.19 1493.88,3438.81C1590.63,3468.43 1701.21,3411.82 1708.45,3351.27C1608.41,3352.58 1536.66,3336.79 1536.66,3336.79L1657.77,3270.31Z" style="fill:rgb(239,107,68);"/><clipPath id="_clip5"><path d="M1657.77,3270.31C1657.77,3270.31 1606.43,3234.77 1516.92,3242.01C1427.4,3249.25 1410.95,3282.16 1410.95,3282.16L1399.1,3317.7C1399.1,3317.7 1397.12,3409.19 1493.88,3438.81C1590.63,3468.43 1701.21,3411.82 1708.45,3351.27C1608.41,3352.58 1536.66,3336.79 1536.66,3336.79L1657.77,3270.31Z"/></clipPath><g clip-path="url(#_clip5)"><g transform="matrix(-1.00027,0.0629674,0.0553589,0.879408,2454.91,2479.73)"><path d="M767.134,917.973C767.134,917.973 850.231,1013.41 972.821,990.375C1095.41,967.338 1115.98,943.478 1115.98,943.478C1115.98,943.478 1076.49,1048.79 992.567,1061.13C908.646,1073.47 787.703,1026.58 761.375,968.983C735.047,911.391 767.134,917.973 767.134,917.973Z" style="fill:rgb(203,68,29);"/></g></g><path d="M1657.77,3270.31C1657.77,3270.31 1606.43,3234.77 1516.92,3242.01C1427.4,3249.25 1410.95,3282.16 1410.95,3282.16L1399.1,3317.7C1399.1,3317.7 1397.12,3409.19 1493.88,3438.81C1590.63,3468.43 1701.21,3411.82 1708.45,3351.27C1608.41,3352.58 1536.66,3336.79 1536.66,3336.79L1657.77,3270.31Z" style="fill:none;stroke:rgb(107,0,0);stroke-width:12.5px;"/></g><g transform="matrix(1.18019,0,0,0.998727,5068.69,3090.01)"><path d="M1142.48,969.144C1142.48,969.144 1159.76,933.76 1207.36,912.276" style="fill:none;stroke:rgb(254,184,163);stroke-width:22.87px;"/></g></g><g transform="matrix(1.02891,0.320967,-0.246191,1.40012,4074.04,-6.5898)"><path d="M1143.26,2904.12C1143.26,2904.12 1137.19,2843.47 1151.68,2833.02C1166.18,2822.57 1218.75,2852.23 1218.75,2852.23" style="fill:rgb(239,107,68);stroke:rgb(107,0,0);stroke-width:5.86px;"/></g><g transform="matrix(0.884985,0.769226,-0.590019,1.20427,5339.48,0.617207)"><path d="M1143.26,2904.12C1143.26,2904.12 1137.19,2843.47 1151.68,2833.02C1166.18,2822.57 1218.75,2852.23 1218.75,2852.23" style="fill:rgb(239,107,68);stroke:rgb(107,0,0);stroke-width:5.86px;"/></g><g transform="matrix(0.662875,1.09619,-0.84081,0.902025,6432.95,506.62)"><path d="M1143.26,2904.12C1143.26,2904.12 1137.19,2843.47 1151.68,2833.02C1166.18,2822.57 1218.75,2852.23 1218.75,2852.23" style="fill:rgb(239,107,68);stroke:rgb(107,0,0);stroke-width:5.86px;"/></g><g transform="matrix(0.75078,0,0,1,4313.25,3789.82)"><ellipse cx="702.804" cy="671.319" rx="13.427" ry="14.48" style="fill:rgb(254,184,163);"/></g><g transform="matrix(0.271426,0.639504,-0.373729,0.281411,4828.37,3411.67)"><path d="M1142.48,969.144C1142.48,969.144 1159.76,933.76 1207.36,912.276" style="fill:none;stroke:rgb(254,184,163);stroke-width:37.98px;"/></g><g transform="matrix(0.63461,-0.0542865,0.0407572,0.845268,3423.13,2087.8)"><path d="M1248.67,3086.39C1248.67,3086.39 1171.34,3116.01 1132.67,3115.19C1094,3114.37 1101.4,3301.95 1110.45,3322.52C1140.48,3177.14 1148.96,3159.97 1148.96,3159.97C1148.96,3159.97 1245.46,3164.78 1277.5,3133.35C1307.81,3103.61 1277.47,3078.17 1248.67,3086.39Z" style="fill:rgb(239,107,68);"/><clipPath id="_clip6"><path d="M1248.67,3086.39C1248.67,3086.39 1171.34,3116.01 1132.67,3115.19C1094,3114.37 1101.4,3301.95 1110.45,3322.52C1140.48,3177.14 1148.96,3159.97 1148.96,3159.97C1148.96,3159.97 1245.46,3164.78 1277.5,3133.35C1307.81,3103.61 1277.47,3078.17 1248.67,3086.39Z"/></clipPath><g clip-path="url(#_clip6)"><g transform="matrix(-0.76966,0.0648653,0.0914149,1.08469,2160.86,2278.49)"><path d="M1417,671.423C1417,671.423 1420.04,699.73 1405.55,720.961C1432.17,706.807 1437.22,696.023 1447.33,674.456C1457.44,652.888 1417,671.423 1417,671.423Z" style="fill:rgb(203,68,29);"/></g></g><path d="M1248.67,3086.39C1248.67,3086.39 1171.34,3116.01 1132.67,3115.19C1094,3114.37 1101.4,3301.95 1110.45,3322.52C1140.48,3177.14 1148.96,3159.97 1148.96,3159.97C1148.96,3159.97 1245.46,3164.78 1277.5,3133.35C1307.81,3103.61 1277.47,3078.17 1248.67,3086.39Z" style="fill:none;stroke:rgb(107,0,0);stroke-width:14.76px;"/></g><g transform="matrix(0.674186,-0.20457,0.153587,0.897981,3061.98,2160.02)"><path d="M1248.67,3086.39C1248.67,3086.39 1171.34,3116.01 1132.67,3115.19C1094,3114.37 1101.4,3301.95 1110.45,3322.52C1140.48,3177.14 1148.96,3159.97 1148.96,3159.97C1148.96,3159.97 1245.46,3164.78 1277.5,3133.35C1307.81,3103.61 1277.47,3078.17 1248.67,3086.39Z" style="fill:rgb(239,107,68);"/><clipPath id="_clip7"><path d="M1248.67,3086.39C1248.67,3086.39 1171.34,3116.01 1132.67,3115.19C1094,3114.37 1101.4,3301.95 1110.45,3322.52C1140.48,3177.14 1148.96,3159.97 1148.96,3159.97C1148.96,3159.97 1245.46,3164.78 1277.5,3133.35C1307.81,3103.61 1277.47,3078.17 1248.67,3086.39Z"/></clipPath><g clip-path="url(#_clip7)"><g transform="matrix(-0.76966,0.0648653,0.0914149,1.08469,2160.86,2278.49)"><path d="M1417,671.423C1417,671.423 1420.04,699.73 1405.55,720.961C1432.17,706.807 1437.22,696.023 1447.33,674.456C1457.44,652.888 1417,671.423 1417,671.423Z" style="fill:rgb(203,68,29);"/></g></g><path d="M1248.67,3086.39C1248.67,3086.39 1171.34,3116.01 1132.67,3115.19C1094,3114.37 1101.4,3301.95 1110.45,3322.52C1140.48,3177.14 1148.96,3159.97 1148.96,3159.97C1148.96,3159.97 1245.46,3164.78 1277.5,3133.35C1307.81,3103.61 1277.47,3078.17 1248.67,3086.39Z" style="fill:none;stroke:rgb(107,0,0);stroke-width:13.57px;"/></g><g transform="matrix(-0.635057,-0.044057,-0.0330771,0.845863,5936.75,2050.38)"><path d="M1248.67,3086.39C1248.67,3086.39 1171.34,3116.01 1132.67,3115.19C1094,3114.37 1101.4,3301.95 1110.45,3322.52C1140.48,3177.14 1148.96,3159.97 1148.96,3159.97C1148.96,3159.97 1245.46,3164.78 1277.5,3133.35C1307.81,3103.61 1277.47,3078.17 1248.67,3086.39Z" style="fill:rgb(239,107,68);"/><clipPath id="_clip8"><path d="M1248.67,3086.39C1248.67,3086.39 1171.34,3116.01 1132.67,3115.19C1094,3114.37 1101.4,3301.95 1110.45,3322.52C1140.48,3177.14 1148.96,3159.97 1148.96,3159.97C1148.96,3159.97 1245.46,3164.78 1277.5,3133.35C1307.81,3103.61 1277.47,3078.17 1248.67,3086.39Z"/></clipPath><g clip-path="url(#_clip8)"><g transform="matrix(-0.76966,0.0648653,0.0914149,1.08469,2160.86,2278.49)"><path d="M1417,671.423C1417,671.423 1420.04,699.73 1405.55,720.961C1432.17,706.807 1437.22,696.023 1447.33,674.456C1457.44,652.888 1417,671.423 1417,671.423Z" style="fill:rgb(203,68,29);"/></g></g><path d="M1248.67,3086.39C1248.67,3086.39 1171.34,3116.01 1132.67,3115.19C1094,3114.37 1101.4,3301.95 1110.45,3322.52C1140.48,3177.14 1148.96,3159.97 1148.96,3159.97C1148.96,3159.97 1245.46,3164.78 1277.5,3133.35C1307.81,3103.61 1277.47,3078.17 1248.67,3086.39Z" style="fill:none;stroke:rgb(107,0,0);stroke-width:14.76px;"/></g><g transform="matrix(-0.675995,-0.193692,-0.14542,0.90039,6298.53,2116.78)"><path d="M1248.67,3086.39C1248.67,3086.39 1171.34,3116.01 1132.67,3115.19C1094,3114.37 1101.4,3301.95 1110.45,3322.52C1140.48,3177.14 1148.96,3159.97 1148.96,3159.97C1148.96,3159.97 1245.46,3164.78 1277.5,3133.35C1307.81,3103.61 1277.47,3078.17 1248.67,3086.39Z" style="fill:rgb(239,107,68);"/><clipPath id="_clip9"><path d="M1248.67,3086.39C1248.67,3086.39 1171.34,3116.01 1132.67,3115.19C1094,3114.37 1101.4,3301.95 1110.45,3322.52C1140.48,3177.14 1148.96,3159.97 1148.96,3159.97C1148.96,3159.97 1245.46,3164.78 1277.5,3133.35C1307.81,3103.61 1277.47,3078.17 1248.67,3086.39Z"/></clipPath><g clip-path="url(#_clip9)"><g transform="matrix(-0.76966,0.0648653,0.0914149,1.08469,2160.86,2278.49)"><path d="M1417,671.423C1417,671.423 1420.04,699.73 1405.55,720.961C1432.17,706.807 1437.22,696.023 1447.33,674.456C1457.44,652.888 1417,671.423 1417,671.423Z" style="fill:rgb(203,68,29);"/></g></g><path d="M1248.67,3086.39C1248.67,3086.39 1171.34,3116.01 1132.67,3115.19C1094,3114.37 1101.4,3301.95 1110.45,3322.52C1140.48,3177.14 1148.96,3159.97 1148.96,3159.97C1148.96,3159.97 1245.46,3164.78 1277.5,3133.35C1307.81,3103.61 1277.47,3078.17 1248.67,3086.39Z" style="fill:none;stroke:rgb(107,0,0);stroke-width:13.57px;"/></g></g><g transform="matrix(0.681707,0,0,0.681707,-7290.76,14081.8)"><g transform="matrix(0.239695,0.576248,-0.576248,0.239695,13897.6,9194.14)"><path d="M2787.51,613.28C2787.51,613.28 2876.01,567.95 2927.82,598.17C2979.63,628.39 2964.52,678.037 2919.19,671.562C2873.86,665.086 2830.68,662.927 2802.62,686.672C2774.56,710.416 2731.39,641.342 2787.51,613.28Z" style="fill:rgb(214,194,149);stroke:black;stroke-width:20.03px;"/></g><g transform="matrix(-0.328438,0,0,0.328438,14569.7,10554)"><path d="M2279.67,511.904C2283.15,491.051 2325.81,459.166 2343.54,451.945C2559.26,364.088 2483.64,611.456 2358.06,601.659" style="fill:rgb(97,224,238);"/><path d="M2254.64,507.733C2252.34,521.546 2261.69,534.629 2275.5,536.931C2289.31,539.234 2302.4,529.888 2304.7,516.075C2304.88,515.003 2305.92,514.071 2306.77,512.845C2309.26,509.272 2312.59,505.624 2316.27,502.031C2328.41,490.188 2344.35,479.012 2353.11,475.444C2381.6,463.842 2404.22,458.492 2421.88,458.41C2433.69,458.355 2442.47,460.424 2448,465.718C2452.26,469.796 2453.91,475.587 2454.33,481.873C2454.95,491.361 2452.65,501.87 2448.44,512.309C2434.92,545.837 2401.43,579.593 2360.03,576.364C2346.07,575.275 2333.86,585.725 2332.76,599.686C2331.68,613.647 2342.13,625.866 2356.09,626.955C2420.19,631.956 2474.55,583.219 2495.5,531.292C2511.34,492.019 2507.27,452.211 2483.09,429.061C2460.14,407.089 2413.02,396.254 2333.97,428.447C2319.33,434.411 2290.08,454.38 2272.55,474.417C2262.51,485.893 2256.29,497.868 2254.64,507.733Z"/></g><g transform="matrix(-0.31441,-0.53913,-0.53913,0.31441,15355.5,12560.9)"><path d="M2787.51,613.28C2787.51,613.28 2876.01,567.95 2927.82,598.17C2979.63,628.39 2964.52,678.037 2919.19,671.562C2873.86,665.086 2830.68,662.927 2802.62,686.672C2774.56,710.416 2731.39,641.342 2787.51,613.28Z" style="fill:rgb(214,194,149);stroke:black;stroke-width:20.03px;"/></g><g transform="matrix(0.0520681,-0.621936,-0.621936,-0.0520681,14104.4,13023.6)"><path d="M2787.51,613.28C2787.51,613.28 2876.01,567.95 2927.82,598.17C2979.63,628.39 2964.52,678.037 2919.19,671.562C2873.86,665.086 2830.68,662.927 2802.62,686.672C2774.56,710.416 2731.39,641.342 2787.51,613.28Z" style="fill:rgb(214,194,149);stroke:black;stroke-width:20.03px;"/></g><g transform="matrix(0.164219,-0.284435,-0.284435,-0.164219,13967.2,11404.4)"><path d="M2301.37,493.302C2304.85,472.448 2326.32,460.207 2344.05,452.986C2559.76,365.129 2483.64,611.456 2358.06,601.659" style="fill:rgb(97,224,238);"/><path d="M2276.35,489.13C2274.05,502.943 2283.39,516.027 2297.2,518.329C2311.02,520.631 2324.1,511.286 2326.4,497.473C2327.1,493.26 2330.21,490.312 2333.45,487.657C2339.48,482.712 2346.94,479.203 2353.62,476.485C2382.12,464.875 2404.75,459.505 2422.41,459.388C2434.18,459.31 2442.93,461.323 2448.43,466.569C2452.62,470.566 2454.23,476.255 2454.62,482.428C2455.22,491.836 2452.89,502.259 2448.67,512.616C2435.06,545.996 2401.45,579.594 2360.03,576.364C2346.07,575.275 2333.86,585.725 2332.76,599.686C2331.68,613.647 2342.13,625.866 2356.09,626.955C2420.17,631.954 2474.59,583.427 2495.66,531.779C2511.64,492.594 2507.62,452.888 2483.45,429.843C2460.58,408.035 2413.51,397.3 2334.48,429.488C2309.32,439.732 2281.28,459.546 2276.35,489.13Z"/></g><g transform="matrix(-0.48568,-5.94787e-17,5.94787e-17,-0.48568,14979,11482.3)"><path d="M1602.28,658.224C1602.28,658.224 1537.63,785.329 1549.85,894.354C1588.09,1235.66 1487.62,1302.63 1526.9,1510.82C1540.54,1583.11 1566.32,1665.45 1610.23,1725.3C1706.72,1856.83 1892.19,1925.15 2053.51,1894.26C2118.1,1881.89 2176.43,1853.93 2234.15,1823.26C2434.98,1716.58 2476.71,1491.41 2450.61,1301.63C2439.06,1217.62 2366.83,1086.68 2377.39,1002.44C2399.42,826.82 2393.26,731.764 2338.43,618.483C2291.7,521.934 2109.83,449.196 1911,469.87C1877.12,473.393 1674.41,508.918 1602.28,658.224Z" style="fill:rgb(97,224,238);"/><clipPath id="_clip10"><path d="M1602.28,658.224C1602.28,658.224 1537.63,785.329 1549.85,894.354C1588.09,1235.66 1487.62,1302.63 1526.9,1510.82C1540.54,1583.11 1566.32,1665.45 1610.23,1725.3C1706.72,1856.83 1892.19,1925.15 2053.51,1894.26C2118.1,1881.89 2176.43,1853.93 2234.15,1823.26C2434.98,1716.58 2476.71,1491.41 2450.61,1301.63C2439.06,1217.62 2366.83,1086.68 2377.39,1002.44C2399.42,826.82 2393.26,731.764 2338.43,618.483C2291.7,521.934 2109.83,449.196 1911,469.87C1877.12,473.393 1674.41,508.918 1602.28,658.224Z"/></clipPath><g clip-path="url(#_clip10)"><g transform="matrix(1.58206,-1.93747e-16,-1.93747e-16,-1.58206,-849.364,3866.96)"><path d="M2003.37,1344.04C2003.37,1344.04 2045.52,1446.83 2019.82,1530.09C1994.12,1613.34 1948.89,1729.5 1956.09,1845.65C1963.28,1961.8 1950.95,2036.84 1925.25,2069.73C1873.36,2136.16 1732.01,2145.79 1696.03,2135.51C1660.05,2125.24 1837.88,2172.52 1939.64,2131.4C2041.4,2090.29 2055.79,1917.6 2042.43,1809.67C2029.07,1701.74 2115.41,1670.91 2086.63,1484.86C2040.38,1375.9 2039.35,1382.07 2003.37,1344.04Z" style="fill:rgb(79,203,224);"/></g><g transform="matrix(1.58206,-1.93747e-16,-1.93747e-16,-1.58206,-822.199,3866.96)"><path d="M1816.44,1503.57C1816.44,1503.57 1829.07,1566.72 1904.33,1563.04C1979.59,1559.36 1984.85,1482.52 1984.85,1482.52L1816.44,1503.57Z" style="fill:rgb(79,203,224);"/></g><g transform="matrix(1.58206,-1.93747e-16,-1.93747e-16,-1.58206,-1331.45,3917.75)"><path d="M1816.44,1503.57C1816.44,1503.57 1829.07,1566.72 1904.33,1563.04C1979.59,1559.36 1984.85,1482.52 1984.85,1482.52L1816.44,1503.57Z" style="fill:rgb(79,203,224);"/></g></g><path d="M1586.88,650.659L1586.89,650.643C1617.38,587.612 1669.68,543.572 1724.03,513.433C1804.06,469.05 1888.16,454.995 1909.22,452.804C2032.07,440.031 2148.59,462.087 2232.58,503.089C2290.97,531.601 2333.8,569.529 2353.87,611.008C2410.08,727.143 2417,824.531 2394.42,1004.57C2389.4,1044.58 2404.69,1095.56 2421.96,1146.63C2440.52,1201.51 2461.71,1256.42 2467.61,1299.29C2494.61,1495.65 2450,1728.03 2242.2,1838.42C2182.96,1869.89 2123.03,1898.42 2056.74,1911.11C1889.18,1943.2 1696.62,1872.06 1596.39,1735.45C1551.04,1673.62 1524.13,1588.68 1510.04,1514C1493.87,1428.29 1500.6,1365.83 1512.12,1299.26C1528.7,1203.39 1555.47,1098.63 1532.79,896.265C1520.38,785.453 1583.91,656.615 1586.88,650.659ZM1617.57,666.003C1617.57,666.003 1555.18,787.854 1566.9,892.444C1586.28,1065.46 1570.51,1168.94 1554.87,1255.56C1539.82,1338.93 1524.6,1406.05 1543.76,1507.64C1556.95,1577.55 1581.6,1657.28 1624.06,1715.15C1716.83,1841.6 1895.19,1907.11 2050.28,1877.41C2113.18,1865.37 2169.9,1837.97 2226.1,1808.11C2419.97,1705.12 2458.81,1487.17 2433.61,1303.97C2426.78,1254.29 2398.22,1188.03 2378.87,1124.99C2364.99,1079.76 2355.89,1036.04 2360.37,1000.3C2381.84,829.108 2376.43,736.386 2322.98,625.959C2305.68,590.198 2267.87,558.507 2217.52,533.927C2138.39,495.292 2028.53,474.9 1912.77,486.936C1893.19,488.973 1815.07,502.187 1740.67,543.443C1692.1,570.378 1644.95,609.336 1617.73,665.687L1617.57,666.003Z"/></g><g transform="matrix(-0.244289,-2.99168e-17,2.3886e-17,-0.195044,14515.7,11305.1)"><path d="M1949.25,437.086C1546.42,524.992 1450.76,759.917 1427.56,867.142C1383.84,1069.12 1362.66,1460.63 1401.94,1668.83C1415.58,1741.12 1441.36,1823.46 1485.27,1883.31C1581.76,2014.84 2013.3,2026.28 2174.62,1995.39C2239.21,1983.02 2297.53,1955.05 2355.26,1924.39C2556.09,1817.7 2625.17,583.75 2244.02,463.384C2142.23,431.238 2013.17,423.135 1949.25,437.086Z" style="fill:rgb(183,248,255);"/></g><g transform="matrix(-0.48568,0,0,0.48568,15059.6,10410.4)"><circle cx="1749.06" cy="789.086" r="14.17" style="fill:rgb(183,248,255);"/></g><g transform="matrix(-0.48568,0,0,0.48568,14717.9,10422.9)"><circle cx="1749.06" cy="789.086" r="14.17" style="fill:rgb(183,248,255);"/></g><g transform="matrix(-0.768377,0,0,0.768377,16175.4,9575.93)"><g transform="matrix(0.624307,-0.0988623,0.109957,0.694372,1402.01,1222.31)"><path d="M1960.41,874.118C1963.57,893.086 1961.3,928.116 1971.79,944.361C1976.87,952.237 1989.75,953.613 1998.14,954.513C2046.33,959.682 2049.89,915.114 2060.81,876.97" style="fill:rgb(237,237,237);"/><path d="M1973.14,872.404C1972.09,866.088 1965.53,861.73 1958.5,862.676C1951.48,863.622 1946.63,869.518 1947.68,875.833C1949.56,887.102 1949.48,904.097 1951.37,919.364C1952.87,931.443 1955.73,942.534 1960.66,950.17C1964.09,955.48 1969.43,959.242 1975.73,961.696C1982.52,964.337 1990.52,965.348 1996.61,966.001C2012.18,967.671 2024.08,965.013 2033.49,959.783C2042.77,954.625 2049.74,946.782 2055.02,937.056C2063.63,921.171 2067.59,899.702 2073.28,879.855C2075.05,873.671 2070.9,867.358 2064.02,865.766C2057.14,864.174 2050.12,867.902 2048.35,874.086C2043.11,892.382 2039.83,912.268 2031.88,926.912C2028.88,932.45 2025.24,937.163 2019.96,940.1C2014.8,942.965 2008.19,943.939 1999.66,943.024C1996.19,942.652 1991.78,942.248 1987.72,941.055C1985.87,940.511 1983.88,940.041 1982.92,938.553C1979.46,933.191 1978.01,925.277 1976.95,916.796C1975.02,901.226 1975.05,883.896 1973.14,872.404Z"/></g><g transform="matrix(0.676451,0.0416125,-0.0481144,0.782146,1960.61,968.001)"><ellipse cx="1221.96" cy="702.82" rx="66.462" ry="36.543"/></g><g transform="matrix(0.621633,0.114474,-0.114474,0.621633,2092.68,1002.77)"><path d="M1204.43,720.734C1203.27,713.729 1196.63,708.989 1189.62,710.157C1182.62,711.324 1177.88,717.96 1179.05,724.966C1182.55,745.991 1182.67,766.767 1184.92,787.826C1185.68,794.888 1192.03,800.006 1199.09,799.249C1206.15,798.492 1211.27,792.144 1210.51,785.082C1208.2,763.523 1208.02,742.26 1204.43,720.734Z"/></g><g transform="matrix(0.631188,0.0336753,-0.0336753,0.631188,2025.37,1092.08)"><path d="M1099.36,765.984C1093.01,762.808 1085.27,765.387 1082.09,771.739C1078.92,778.092 1081.5,785.828 1087.85,789.004C1129.7,809.929 1169.24,816.423 1205.94,809.13C1242.65,801.838 1276.75,780.716 1307.49,745.256C1312.14,739.89 1311.56,731.756 1306.19,727.104C1300.82,722.452 1292.69,723.032 1288.04,728.399C1261.58,758.928 1232.53,777.608 1200.93,783.887C1169.33,790.165 1135.39,783.999 1099.36,765.984Z"/></g><g transform="matrix(0.734444,-0.222559,0.222559,0.734444,569.292,1743.65)"><ellipse cx="2765.83" cy="286.812" rx="23.313" ry="12.088" style="fill:rgb(183,248,255);"/></g><g transform="matrix(0.493537,0.587674,-0.587674,0.493537,1802.93,-389.275)"><ellipse cx="2765.83" cy="286.812" rx="23.313" ry="12.088" style="fill:rgb(183,248,255);"/></g><g transform="matrix(1.18978,-0.169438,0.169438,1.18978,1245.06,999.679)"><circle cx="1071.81" cy="534.398" r="76.669" style="fill:white;stroke:black;stroke-width:13.54px;"/></g><g transform="matrix(1.18978,-0.169438,0.169438,1.18978,1569.81,1026.66)"><circle cx="1071.81" cy="534.398" r="76.669" style="fill:white;stroke:black;stroke-width:13.54px;"/></g><g transform="matrix(-0.87501,-2.75385,2.75385,-0.87501,2035.88,4838.31)"><circle cx="1044.8" cy="535.269" r="11.326"/></g><g transform="matrix(-0.606495,-2.82515,2.82515,-0.606495,2027.98,4784.46)"><circle cx="1044.8" cy="535.269" r="11.326"/></g><g transform="matrix(-0.245464,-0.772529,0.772529,-0.245464,2973.82,3480.48)"><circle cx="2472.68" cy="285.194" r="11.336" style="fill:white;"/></g><g transform="matrix(-0.170138,-0.792531,0.792531,-0.170138,3091.99,3522.98)"><circle cx="2472.68" cy="285.194" r="11.336" style="fill:white;"/></g></g><g transform="matrix(-0.449332,-0.433146,-0.433146,0.449332,15473.3,11969.6)"><path d="M2787.51,613.28C2787.51,613.28 2876.01,567.95 2927.82,598.17C2979.63,628.39 2964.52,678.037 2919.19,671.562C2873.86,665.086 2830.68,662.927 2802.62,686.672C2774.56,710.416 2731.39,641.342 2787.51,613.28Z" style="fill:rgb(214,194,149);stroke:black;stroke-width:20.03px;"/></g></g></g></g></g></svg>